<svg width="76" height="20" viewBox="0 0 76 20" fill="none" xmlns="http://www.w3.org/2000/svg">
<path fill-rule="evenodd" clip-rule="evenodd" d="M24.3137 15.7483L25.2622 13.4562C26.2867 14.2529 27.6516 14.6671 28.9984 14.6671C29.9924 14.6671 30.6217 14.2687 30.6217 13.6648C30.6065 11.9766 24.6664 13.2981 24.6208 9.06481C24.6056 6.91497 26.4417 5.25833 29.044 5.25833C30.5913 5.25833 32.1357 5.65668 33.2392 6.56404L32.3515 8.90358C31.3422 8.23333 30.0867 7.75594 28.892 7.75594C28.0803 7.75594 27.5452 8.15429 27.5452 8.6633C27.5604 10.3199 33.5462 9.41258 33.607 13.4562C33.607 15.6535 31.8165 17.1994 29.2446 17.1994C27.3598 17.1963 25.63 16.7347 24.3137 15.7483ZM60.736 12.6279C60.2618 13.4878 59.3741 14.0758 58.3466 14.0758C56.8296 14.0758 55.6075 12.8017 55.6075 11.2273C55.6075 9.65286 56.8326 8.37876 58.3466 8.37876C59.371 8.37876 60.2618 8.96681 60.736 9.82674L63.3535 8.31553C62.3746 6.50081 60.4898 5.25833 58.3466 5.25833C55.1758 5.25833 52.604 7.93298 52.604 11.2305C52.604 14.5279 55.1758 17.2026 58.3466 17.2026C60.505 17.2026 62.3746 15.9759 63.3535 14.1454L60.736 12.6279ZM34.9233 0.304199H38.2005V16.975H34.9233V0.304199ZM64.6394 0.304199V16.975H67.9165V11.9734L71.8047 16.975H75.9999L71.0538 11.0345L75.632 5.49228H71.6192L67.9135 10.0923V0.304199H64.6394Z" fill="#8F94A2"/>
<path d="M47.9383 12.6587C47.4641 13.4712 46.4852 14.0751 45.3817 14.0751C43.8647 14.0751 42.6426 12.801 42.6426 11.2265C42.6426 9.65209 43.8678 8.37799 45.3817 8.37799C46.4852 8.37799 47.4641 9.01346 47.9383 9.84178V12.6587ZM47.9383 5.49467V6.84781C47.4033 5.90883 46.0717 5.25439 44.6764 5.25439C41.7975 5.25439 39.5327 7.89744 39.5327 11.2107C39.5327 14.524 41.7975 17.1987 44.6764 17.1987C46.0687 17.1987 47.4002 16.5474 47.9383 15.6053V16.9584H51.2154V5.49467H47.9383Z" fill="#8F94A2"/>
<path fill-rule="evenodd" clip-rule="evenodd" d="M4.05833 12.643C4.05833 13.8064 3.15545 14.7454 2.03673 14.7454C0.918016 14.7454 0.0151367 13.8032 0.0151367 12.643C0.0151367 11.4827 0.918016 10.5405 2.03673 10.5405H4.05833V12.643ZM5.06761 12.643C5.06761 11.4795 5.97049 10.5405 7.08921 10.5405C8.20793 10.5405 9.11081 11.4795 9.11081 12.643V17.8974C9.11081 19.0609 8.20793 19.9999 7.08921 19.9999C5.97049 19.9999 5.06761 19.0609 5.06761 17.8974V12.643Z" fill="#8F94A2"/>
<path fill-rule="evenodd" clip-rule="evenodd" d="M7.08927 4.20484C5.97055 4.20484 5.06768 3.26587 5.06768 2.10242C5.06768 0.938976 5.97055 0 7.08927 0C8.20799 0 9.11087 0.938976 9.11087 2.10242V4.20484H7.08927ZM7.08927 5.27028C8.20799 5.27028 9.11087 6.20925 9.11087 7.3727C9.11087 8.53614 8.20799 9.47512 7.08927 9.47512H2.0216C0.902879 9.47512 0 8.53298 0 7.3727C0 6.21242 0.902879 5.27028 2.0216 5.27028H7.08927Z" fill="#8F94A2"/>
<path fill-rule="evenodd" clip-rule="evenodd" d="M15.1887 7.3727C15.1887 6.20925 16.0916 5.27028 17.2103 5.27028C18.329 5.27028 19.2319 6.20925 19.2319 7.3727C19.2319 8.53614 18.329 9.47512 17.2103 9.47512H15.1887V7.3727ZM14.1794 7.3727C14.1794 8.53614 13.2766 9.47512 12.1578 9.47512C11.0391 9.47512 10.1362 8.53614 10.1362 7.3727V2.10242C10.1362 0.938976 11.0391 0 12.1578 0C13.2766 0 14.1794 0.938976 14.1794 2.10242V7.3727Z" fill="#8F94A2"/>
<path fill-rule="evenodd" clip-rule="evenodd" d="M12.1576 15.795C13.2763 15.795 14.1792 16.734 14.1792 17.8974C14.1792 19.0609 13.2763 19.9999 12.1576 19.9999C11.0389 19.9999 10.136 19.0609 10.136 17.8974V15.795H12.1576ZM12.1576 14.7454C11.0389 14.7454 10.136 13.8064 10.136 12.643C10.136 11.4795 11.0389 10.5405 12.1576 10.5405H17.2253C18.344 10.5405 19.2469 11.4795 19.2469 12.643C19.2469 13.8064 18.344 14.7454 17.2253 14.7454H12.1576Z" fill="#8F94A2"/>
</svg>
