<svg width="94" height="14" viewBox="0 0 94 14" fill="none" xmlns="http://www.w3.org/2000/svg">
<path d="M17.3027 5.5663C16.2485 5.5663 15.3568 6.33203 14.2279 7.8046C13.7095 8.4946 13.0418 9.48753 12.7475 9.90826C12.5806 10.1228 12.4488 10.0892 12.5411 9.85777L13.323 7.93923L16.1167 0.576404C16.2529 0.273476 15.1371 -0.0925613 14.9351 0.273476V0.311342C14.4563 1.28744 13.5646 1.6072 11.97 1.5525C10.3755 1.49781 7.16884 0.652136 4.74408 0.652136C1.70436 0.652136 0 2.44446 0 4.55654C0 5.743 0.812644 6.50874 1.90642 6.47087C2.14959 6.48997 2.39164 6.42302 2.58673 6.28267C2.78182 6.14233 2.91643 5.93835 2.96505 5.70935C2.98873 5.6208 2.98687 5.52777 2.95967 5.44016C2.93247 5.35255 2.88095 5.27366 2.81061 5.21189C2.74026 5.15013 2.65373 5.10782 2.56025 5.08947C2.46677 5.07112 2.36983 5.07742 2.2798 5.1077C1.20359 5.32227 0.834607 4.61123 0.834607 4.06007C0.834607 2.74739 2.00306 1.77129 4.44538 1.77129C5.07353 1.77129 6.29909 1.91433 7.59493 2.05318C5.94768 6.80746 4.27846 11.2125 3.86994 12.256C3.83158 12.3962 3.75724 12.5251 3.65369 12.6309C3.55013 12.7367 3.42063 12.8161 3.27693 12.8618C2.68831 13.0385 2.49943 13.0553 2.13045 13.1437C1.57258 13.2699 1.66482 13.7117 2.05577 13.6949C2.7586 13.657 3.66788 13.5686 4.38828 13.5686C5.26681 13.5686 6.85257 13.6402 7.09416 13.657C7.53343 13.6949 7.59493 13.1774 7.22594 13.1269C6.96678 13.089 6.54069 13.0217 6.13217 12.967C5.64897 12.9123 5.50402 12.7188 5.61383 12.3443C5.85543 11.7258 8.6887 3.88337 9.24657 2.24671C10.1251 2.3519 10.8763 2.42342 11.3726 2.45708C12.3961 2.51598 13.3801 2.45708 14.2279 1.86385L11.9876 7.9224L10.0241 13.11C9.69023 13.9515 10.9465 14.0146 11.2277 13.5013C12.1813 11.676 13.303 9.93566 14.5793 8.30106C15.3963 7.16508 16.1562 6.4877 16.6921 6.4877C17.1007 6.4877 17.3379 6.70228 17.3379 7.18191C17.3379 7.82143 17.026 8.81436 16.3934 10.5015C15.5632 12.7019 15.247 13.2867 14.9702 13.3036C14.6935 13.3204 14.1532 12.6641 13.8589 12.5925C13.7202 12.5525 13.5711 12.5609 13.4384 12.6164C13.3056 12.6719 13.1977 12.7708 13.1341 12.8955C12.9847 13.1437 13.0814 13.9431 14.3377 13.9978C15.84 14.0651 17.1182 12.5925 18.0056 10.2364C18.6161 8.63765 18.7655 7.82143 18.7655 7.23661C18.7655 6.10063 18.212 5.5663 17.3027 5.5663ZM42.7363 13.1774C41.7919 12.967 41.4185 12.6304 41.4185 12.2728L41.458 11.5281C41.458 10.9811 41.8973 2.90726 41.9939 1.69976C42.0686 0.812015 41.01 0.858295 40.5663 1.38L39.6878 2.46129C38.6072 3.75715 34.2628 9.13411 32.1412 11.6543C31.545 12.3487 30.7586 12.8703 29.8702 13.1605C29.5187 13.2489 29.5539 13.6065 29.9448 13.6065C30.2567 13.6065 31.1836 13.5013 31.8688 13.5013C32.5541 13.5013 33.8148 13.5518 34.131 13.5686C34.4473 13.5855 34.5703 13.2489 34.131 13.1479C33.2525 12.8997 32.8132 12.7272 32.8132 12.5084C32.8132 12.2896 33.0153 11.9951 33.4985 11.3556C33.8675 10.8591 34.7548 9.73997 35.7388 8.49881H39.9733C39.8811 10.2028 39.7712 11.9951 39.7537 12.3485C39.7557 12.4618 39.7158 12.5721 39.641 12.6599C39.5662 12.7477 39.4614 12.8073 39.3451 12.8281L38.4007 13.0932C38.1416 13.1647 38.0273 13.6275 38.4359 13.6107C39.3627 13.556 40.1402 13.4845 40.5487 13.4845C41.1593 13.4845 42.196 13.6107 42.6792 13.6275C43.1624 13.6444 43.0921 13.2699 42.7363 13.1774ZM40.1007 6.66862C40.1007 6.98837 40.0612 7.34179 40.0436 7.71624H36.4196C38.1064 5.58313 39.8854 3.34903 40.0348 3.13446C40.1841 2.91989 40.3291 3.02928 40.3115 3.18916C40.2544 3.97172 40.1622 5.40642 40.0919 6.66862H40.1007ZM24.1948 5.69252C22.5827 5.62099 20.7861 7.41331 19.9339 10.1102C19.0993 12.7188 20.0262 13.8 21.0453 13.8C21.7876 13.8 23.0264 12.8786 23.7116 11.8142C23.9532 11.4397 23.7687 11.0484 23.3998 11.4397C22.9341 11.9194 22.306 12.4327 21.6427 12.3106C21.2034 12.2391 20.7905 11.5113 21.4406 9.7021C22.9956 9.63058 24.8274 8.7807 25.293 7.37545C25.6971 6.16374 24.8625 5.70935 24.1948 5.69252ZM24.3617 7.0052C23.9708 8.10332 22.6047 9.02472 21.6207 9.25612C22.5651 6.86215 23.47 6.22264 24.0455 6.23947C24.3618 6.23947 24.5111 6.58447 24.3617 7.0052ZM48.0558 6.58447H49.5581C49.8919 6.58447 50.0589 6.49612 50.1292 6.26471C50.2609 5.96179 50.1863 5.81874 49.8524 5.81874H48.3501L49.0749 3.97593C49.1672 3.72769 49.0749 3.60147 48.9256 3.60147H48.1481C47.946 3.60147 47.8713 3.65617 47.7791 3.9044L47.0016 5.83136H45.8156C45.6486 5.83136 45.5169 5.7977 45.407 6.27734C45.3675 6.50874 45.407 6.59709 45.6486 6.59709H46.7029L44.9063 11.0863C44.6216 11.7292 44.3738 12.3866 44.1639 13.0553C44.0541 13.678 44.445 13.9263 44.9238 13.8379C45.8683 13.678 47.2212 12.7356 48.438 11.263C48.7718 10.8423 48.4951 10.573 48.1612 10.9096C47.6571 11.3885 47.1184 11.8328 46.5491 12.2391C46.0659 12.542 45.8287 12.3275 45.9957 11.8857L48.0558 6.58447ZM64.7655 6.16374C64.8754 5.9155 64.5064 5.84398 63.6542 5.68831C63.395 5.63361 63.2457 5.89868 62.802 6.78642C62.6174 6.57249 62.3804 6.4056 62.1122 6.30063C61.8439 6.19566 61.5528 6.15586 61.2646 6.18477C59.9116 6.21843 58.2424 7.38807 56.8719 9.18039C55.7781 10.6193 55.4443 11.6122 55.6507 12.6767C55.7113 12.977 55.8798 13.2475 56.127 13.4412C56.3741 13.6349 56.6843 13.7395 57.0037 13.7369C58.0228 13.7706 59.0419 12.8492 60.0786 11.8352L60.7287 11.2125C60.9132 11.0358 61.0801 11.141 60.9659 11.3556C60.6308 11.9135 60.3528 12.501 60.1357 13.11C60.0039 13.7327 60.3553 13.8926 60.8561 13.8211C61.818 13.6991 63.3203 12.845 64.4712 11.3219C64.8007 10.8759 64.4712 10.6277 64.1725 10.9643C63.6699 11.4741 63.1184 11.9375 62.5253 12.3485C62.0245 12.6683 61.8005 12.5799 61.9498 12.2055C62.0245 11.9741 62.3012 11.3345 64.7655 6.16374ZM60.4871 10.7918C59.3186 11.8226 58.3742 12.5673 57.7241 12.5673C57.2848 12.5673 57.0784 12.3864 57.0388 12.0877C56.929 11.3051 57.6714 10.1186 58.2819 9.31924C59.3362 7.98972 60.6364 6.8874 61.4666 6.8874C62.0421 6.8874 62.3452 7.1188 62.3935 7.45539C62.5033 8.06966 61.4315 9.95033 60.4871 10.7666V10.7918ZM86.2193 5.44428C85.3101 5.44428 84.0889 6.06276 82.938 7.2871C82.569 7.70783 82.8458 7.9813 83.1972 7.67838C83.588 7.33596 84.0099 7.0276 84.4579 6.75697C84.8488 6.52557 85.108 6.70228 84.9938 7.03886C84.9015 7.30813 84.6248 7.96448 84.4227 8.40625L83.162 11.1747C82.8106 11.9572 82.4768 12.7356 82.4021 12.9502C82.2352 13.5013 82.5295 13.7916 82.9951 13.7916C83.8736 13.7916 85.0904 13.0974 86.2545 11.8563C86.6235 11.4355 86.3467 11.1663 85.9953 11.465C85.5638 11.8319 85.1058 12.1694 84.6248 12.4747C84.2382 12.7019 83.9571 12.5252 84.0889 12.1886C84.1811 11.9404 84.4579 11.3724 84.6424 10.9643L85.9206 8.19588C86.294 7.37966 86.7201 6.51295 86.7992 6.28154C86.9397 5.743 86.663 5.44428 86.2193 5.44428ZM87.3307 1.1486C87.0592 1.13207 86.7916 1.21714 86.5843 1.38588C86.3769 1.55463 86.2461 1.79386 86.2193 2.05318C86.1969 2.17258 86.2005 2.29513 86.2299 2.41313C86.2593 2.53114 86.3139 2.64203 86.3902 2.73885C86.4666 2.83567 86.563 2.91631 86.6734 2.9757C86.7839 3.0351 86.9059 3.07196 87.032 3.08397C87.2968 3.09243 87.5555 3.00624 87.7576 2.84216C87.9598 2.67807 88.091 2.44784 88.1257 2.19623C88.1516 2.07682 88.1511 1.95356 88.1243 1.83435C88.0975 1.71513 88.045 1.6026 87.9702 1.50396C87.8953 1.40532 87.7998 1.32276 87.6896 1.26156C87.5795 1.20037 87.4572 1.16189 87.3307 1.1486ZM92.4613 5.70935C90.8316 5.63782 89.0877 7.44697 88.2356 10.1102C87.3834 12.7735 88.3102 13.8 89.3865 13.8C90.1288 13.8 91.3675 12.9586 92.1099 11.8142C92.3515 11.4397 92.167 11.0484 91.7936 11.4397C91.3324 11.9194 90.7394 12.3611 90.1288 12.3275C89.5182 12.2938 89.0877 11.486 89.795 9.54222C90.8316 6.74014 91.552 6.42038 91.8683 6.39935C92.1846 6.37831 92.8303 7.18191 93.2213 7.27027C93.3587 7.3122 93.5074 7.30506 93.6399 7.25015C93.7723 7.19524 93.8795 7.09627 93.9417 6.97155C94.1086 6.66862 94.0032 5.78087 92.4613 5.70935ZM81.9409 5.83136H80.4386L81.159 3.98855C81.2556 3.74032 81.159 3.6141 81.014 3.6141H80.2321C80.0301 3.6141 79.9554 3.66879 79.8631 3.91702L79.1032 5.83136H77.8996C77.7327 5.83136 77.6053 5.7977 77.4911 6.27734C77.456 6.50874 77.5131 6.59709 77.7327 6.59709H78.7913L76.9947 11.0863C76.7081 11.7285 76.4602 12.3859 76.2524 13.0553C76.1382 13.678 76.5291 13.9263 77.0123 13.8379C77.9567 13.678 79.3097 12.7356 80.5264 11.263C80.8603 10.8423 80.5835 10.573 80.2453 10.9096C79.7399 11.3887 79.1997 11.833 78.6288 12.2391C78.1456 12.542 77.904 12.3275 78.0709 11.8857L80.1399 6.58447H81.6422C81.976 6.58447 82.1429 6.49612 82.2176 6.26471C82.345 5.97441 82.2703 5.83136 81.9409 5.83136ZM54.0035 10.8381C53.4783 11.3381 52.9208 11.8061 52.3343 12.2391C51.8511 12.542 51.6139 12.3275 51.7808 11.8857L56.3009 0.420733C56.3755 0.244025 56.336 0 56.0768 0C55.1937 0.0519197 54.314 0.147413 53.4412 0.286098C53.2919 0.319757 53.2172 0.534331 53.3841 0.584819L54.3857 0.942442C54.5877 1.01397 54.6097 1.10232 54.4779 1.42208L50.5948 11.0863C50.3082 11.7285 50.0603 12.3859 49.8524 13.0553C49.7426 13.678 50.1292 13.9263 50.6124 13.8379C51.6139 13.678 53.0371 12.7356 54.2802 11.1915C54.6141 10.7666 54.3373 10.5015 54.0035 10.8381ZM73.0633 10.8717L74.1571 8.76807C74.7501 7.61527 74.8643 7.08514 74.8643 6.69386C74.8643 5.93233 74.4558 5.54105 73.6212 5.54105C72.4527 5.54105 71.5259 6.4288 70.107 8.34313C69.7161 8.85643 69.4569 9.24771 68.9386 9.88722C68.7717 10.085 68.6443 10.0639 68.7365 9.83253L69.4569 8.11173C69.7439 7.51395 69.9435 6.88109 70.0499 6.23105C70.0499 5.77246 69.8479 5.55788 69.3295 5.55788C68.697 5.55788 67.9019 5.87764 66.5138 7.56478C66.013 8.18326 66.5138 8.25478 66.6807 8.06124C66.9575 7.79197 67.5593 7.19033 67.959 6.85374C68.3587 6.51715 68.7145 6.62234 68.5696 7.03045C68.4738 7.35154 68.3565 7.66635 68.2182 7.97289L66.0218 13.1353C65.7231 13.8463 67.1332 14.0062 67.3748 13.4719C68.1347 11.7889 69.7995 9.68527 70.4848 8.75125C71.4863 7.38386 72.3561 6.44563 72.9842 6.44563C73.3181 6.44563 73.4674 6.62234 73.4674 6.95892C73.4345 7.25205 73.3467 7.5371 73.2082 7.80039L71.6532 10.9769C71.214 11.8184 70.8011 12.7146 70.7264 12.946C70.5419 13.4971 70.8582 13.7874 71.3545 13.7874C72.2331 13.7874 73.4498 13.0932 74.6183 11.852C74.9873 11.4313 74.7105 11.162 74.3591 11.4608C73.9268 11.8281 73.4689 12.1669 72.9886 12.4747C72.5845 12.723 72.3034 12.5252 72.4351 12.1718C72.5274 11.9194 72.8612 11.263 73.0633 10.8717Z" fill="#8F94A2"/>
</svg>
