<svg width="66" height="15" viewBox="0 0 66 15" fill="none" xmlns="http://www.w3.org/2000/svg">
<path d="M4.96197 4.19797L4.96036 0.00195312H0.1875V12.5997L2.57393 14.9993L9.13562 15.0002V10.1992H4.96197V8.99894H9.13562V4.19797H4.96197Z" fill="#8F94A2"/>
<path d="M22.2575 4.19678V10.198H21.0639V4.19678H16.2974V10.198H15.1038V4.19678H10.3293V12.5985L12.7158 14.9982L27.032 14.999V4.19678H22.2575Z" fill="#8F94A2"/>
<path d="M28.2256 4.19678H33.0001V14.9982H28.2272L28.2256 4.19678Z" fill="#8F94A2"/>
<path d="M28.2272 0.000976562H33.0001V3.00482H28.2256L28.2272 0.000976562Z" fill="#8F94A2"/>
<path d="M46.7227 4.19678L44.3354 6.59968V12.5985L46.7219 14.9982L53.8844 14.999V10.198H49.1099V8.99775H53.8844V4.19678H46.7227Z" fill="#8F94A2"/>
<path d="M63.4252 4.19682H59.8523V0H55.0779V14.999H59.8443V8.99779H61.038V14.999L65.8124 14.9982V6.59972L63.4252 4.19682Z" fill="#8F94A2"/>
<path d="M38.9681 4.19682L38.9657 0.000805581L34.1936 0V12.5985L36.5792 14.9982H43.1417V10.1988L38.9681 10.198V8.99779H43.1417V4.19682H38.9681Z" fill="#8F94A2"/>
</svg>
