<svg width="100" height="40" viewBox="0 0 100 40" fill="none" xmlns="http://www.w3.org/2000/svg">
<path d="M23.4033 0C20.7438 0 18.2299 0.638998 16.0011 1.76627L16.1828 2.11718C18.3403 1.02819 20.7257 0.435705 23.2046 0.405373V3.41028C21.2479 3.43871 19.3225 3.90898 17.5703 4.78641L17.751 5.13624H17.7521C19.4297 4.29908 21.282 3.84113 23.2046 3.81174V6.5326C21.7483 6.55982 20.3156 6.90768 19.0071 7.55176L19.1265 7.78228L19.0071 7.55176C18.0617 8.01614 17.1941 8.62641 16.4358 9.3605L14.5223 7.4334C15.4734 6.50329 16.5627 5.72826 17.751 5.13624L17.5703 4.78641C16.3467 5.39777 15.2247 6.19657 14.2443 7.15434L12.1299 5.02502C13.3238 3.85097 14.691 2.87008 16.1828 2.11718L16.0012 1.76641C12.7794 3.3972 10.157 6.0543 8.55981 9.31102C7.43851 11.5967 6.85613 14.1121 6.85803 16.6615C6.85803 18.2752 7.08693 19.8514 7.52372 21.3579L7.91419 21.2588C7.49857 19.8302 7.27901 18.3511 7.26162 16.8626H10.2445C10.262 18.1039 10.4519 19.3365 10.8087 20.5247L11.1962 20.4266C10.8498 19.2852 10.6621 18.0881 10.643 16.8626H13.3446C13.3526 17.263 13.3847 17.6583 13.438 18.0496C13.2502 18.0739 13.0735 18.1355 13.0735 18.1355L12.9892 18.4085C12.8064 18.4429 12.689 18.7493 12.689 18.7493C12.5394 18.8008 12.422 18.9889 12.4722 19.0394C12.5224 19.091 12.3888 19.1082 12.3888 19.1082V19.4833L12.3055 19.6026L12.3216 20.0121C12.422 20.0121 12.4059 20.1992 12.4059 20.1992C12.2393 20.2163 12.2714 20.4387 12.2714 20.4387L11.922 20.558L11.8547 20.6602L11.421 20.643L11.3045 20.7623L11.3036 20.7613C11.2664 20.6507 11.231 20.5394 11.1972 20.4277L10.8096 20.5258C10.8217 20.5652 10.8348 20.6036 10.8478 20.6431H10.3529L10.3197 20.5582L10.153 20.5238L10.136 20.3357L9.88598 20.3529L9.83578 20.455L9.56873 20.4722C9.58479 20.6431 9.30167 20.8988 9.26861 20.8312C9.23448 20.7624 9.05068 20.5744 9.13501 20.5409C9.21841 20.5065 9.43527 20.4722 9.43527 20.4722V20.3529L8.81776 20.3357L8.75057 20.4389L8.50051 20.455V20.728L8.38405 20.7624C8.29972 20.8139 8.40011 21.001 8.40011 21.001C8.51657 21.1203 8.38405 21.3084 8.38405 21.3084C8.28365 21.4104 8.46637 21.5985 8.46637 21.5985C8.60091 21.6319 8.38405 21.7351 8.38405 21.7351C8.41725 21.9049 8.51657 21.9564 8.51657 21.9564C8.41725 22.1274 8.58391 22.2123 8.58391 22.2123L8.60091 22.5024L8.71737 22.5702V22.7583L8.78363 22.8776H9.05068L9.03462 22.4509C8.80076 22.1779 9.23448 22.1101 9.25148 22.2123C9.26861 22.3143 9.45227 22.366 9.45227 22.366C9.48547 22.6217 9.76858 22.7744 9.85184 22.5197C9.93618 22.2628 10.0024 22.4165 10.0526 22.5358C10.1028 22.6551 10.4192 22.9452 10.4192 22.9452H10.6701L10.7032 23.1849C10.9874 23.1677 11.0707 23.2021 11.1871 23.5934C11.3046 23.9857 11.6208 24.0888 11.6208 24.0888L11.8548 24.0716C11.8548 23.8664 12.0887 24.106 12.0887 24.2081C12.0887 24.3102 12.5395 24.7025 12.5395 24.7025L12.9893 24.8047L13.0726 24.8724C13.3509 25.2269 13.6468 25.567 13.9591 25.8915L11.8488 28.0158C9.98236 26.0897 8.6491 23.7774 7.91513 21.2597L7.52466 21.3588C8.29369 24.0089 9.71223 26.4384 11.7052 28.4444C13.0545 29.8033 14.5966 30.8973 16.2692 31.7041L16.4669 31.3502C14.8846 30.591 13.4209 29.5678 12.1308 28.2988L14.2401 26.1746C15.3364 27.2463 16.5864 28.1017 17.9387 28.7235L18.1355 28.3716C16.7984 27.7604 15.5761 26.9214 14.5223 25.8915L14.9148 25.4961C14.9348 25.5345 14.952 25.581 14.9589 25.6408C14.9921 25.8965 15.1086 25.845 15.1086 25.845L16.0604 25.8288L16.3946 25.5386L17.246 25.5215C17.6797 25.5042 17.4126 24.9067 17.3294 24.9067C17.2801 24.8683 17.2701 24.7884 17.2772 24.6994C17.9506 25.2215 18.687 25.6557 19.4687 25.9915L19.6655 25.6408C18.7624 25.2584 17.9225 24.7394 17.1748 24.1019L16.723 23.6773L18.8253 21.5601C19.4923 22.1959 20.283 22.6854 21.1474 22.9978C21.3795 23.0815 21.6162 23.152 21.8562 23.2091C21.814 23.2455 21.791 23.2798 21.801 23.3041C21.8341 23.389 21.6674 23.4751 21.6674 23.4751L21.5168 23.5256L21.4164 23.6793L21.2167 23.747L21.1826 24.106L21.0831 24.1736V24.3273L20.9657 24.3617V24.4466L20.7991 24.4639L20.8995 24.7196L21.0329 24.7884C21.2669 24.8218 21.1665 25.1119 21.1665 25.1119L21.3 25.1292L21.3673 25.3161L21.4998 25.5891C21.55 25.7945 21.7006 25.7428 21.7678 25.7257C21.8341 25.7095 21.9003 25.9309 21.9003 25.9309L22.568 25.9481C22.568 25.9481 22.5349 26.0158 22.6513 26.0502C22.7156 26.0695 22.9777 26.0877 23.2055 26.0917V26.3919C21.9894 26.3694 20.7885 26.1148 19.6666 25.6417L19.4698 25.9926C20.6394 26.493 21.9014 26.768 23.2055 26.7934V29.5141C21.4285 29.4869 19.7117 29.0935 18.1366 28.3736L17.9398 28.7255C19.5742 29.4777 21.3582 29.8882 23.2055 29.9156V32.9205C20.8361 32.8911 18.5491 32.3502 16.468 31.3522L16.2701 31.7052C18.4699 32.7657 20.8944 33.3259 23.4054 33.3259C26.0387 33.3259 28.5767 32.7061 30.8608 31.5423C32.4293 30.7432 33.8617 29.6982 35.1045 28.4464C36.4317 27.1098 37.503 25.5841 38.2991 23.9321L38.2971 23.928C39.3764 21.6904 39.9487 19.2205 39.9487 16.6604C39.9487 14.4826 39.534 12.3704 38.7479 10.4109C37.9267 8.3656 36.6988 6.48595 35.1025 4.87835C33.5001 3.26374 31.6258 2.02511 29.5847 1.19805V1.20008C27.645 0.413462 25.5558 0 23.4033 0ZM23.6021 0.405373C25.6342 0.430717 27.6059 0.834066 29.4381 1.57727L29.439 1.57525C31.3687 2.35782 33.1457 3.51853 34.6757 5.023L32.8887 6.82365C32.8275 6.83889 32.7622 6.8459 32.715 6.82568C32.5986 6.77512 32.7652 6.65487 32.7652 6.65487V6.51831L32.6648 6.41626C32.6648 6.41626 32.3817 6.45063 32.3646 6.40008C32.3476 6.34845 32.2983 6.12709 32.2983 6.12709L32.2813 5.83685L32.1649 5.78535L32.1477 5.68316L31.9641 5.70042V5.49511L31.8637 5.46181L31.7642 5.41018L31.7472 5.20499L31.3807 5.18882L31.2633 5.01788L31.1297 4.8127L30.7131 4.77927L30.6127 4.67722L30.4461 4.64284L30.3286 4.59121L30.2784 4.67722L29.9611 4.69434L29.945 4.79652C29.8457 4.84708 29.5776 4.84398 29.3658 4.84303C29.0333 4.67278 28.6936 4.51693 28.3478 4.37592L28.2022 4.74893C28.4805 4.86291 28.7548 4.98669 29.0245 5.12006C29.0053 5.17965 28.9812 5.22212 28.9431 5.22212C28.8598 5.22212 28.8929 5.44455 28.8929 5.44455C28.8929 5.44455 29.1108 5.44455 29.1771 5.46181C29.2443 5.47798 29.2443 5.64879 29.2443 5.64879C29.4943 5.63167 29.5947 5.97341 29.5615 6.05834C29.5274 6.14327 29.661 6.14327 29.661 6.14327C29.661 6.14327 29.661 6.41626 29.6278 6.48501C29.5947 6.55268 29.8446 6.60432 29.912 6.70637C29.9782 6.80855 29.8778 7.1503 29.8276 7.16742C29.7784 7.18467 29.9611 7.23523 29.945 7.32016C29.928 7.40603 29.9952 7.32016 30.0113 7.45766C30.0284 7.59315 30.0615 7.88326 30.0615 7.88326L30.2955 7.90051C30.3286 7.67902 30.7593 7.66999 30.8296 7.69627C31.1127 7.79832 31.3305 8.24225 31.3305 8.3443C31.3305 8.44649 31.1458 8.46361 31.1458 8.46361L31.1538 8.57388L30.5686 9.16327C30.5083 9.12593 30.4481 9.10773 30.4129 9.12889C30.3296 9.17945 30.3627 8.77003 30.3627 8.77003C30.3627 8.77003 30.5133 8.66785 30.5795 8.71948C30.6469 8.77003 30.0124 7.86613 29.8788 7.95201C29.7453 8.03694 29.4451 7.86613 29.4622 7.71245C29.4783 7.55971 28.8608 7.04717 28.8608 7.04717C28.8608 7.04717 28.661 6.91168 28.6278 7.01373C28.5937 7.11592 28.5274 7.18467 28.6278 7.23523C28.7273 7.28672 28.7102 7.1503 28.8277 7.2696C28.9442 7.38891 29.1619 7.54259 29.0776 7.64464C29.0289 7.70517 28.9657 7.75217 28.894 7.7812L29.0114 7.91763H29.1951L29.2282 8.20788C29.2282 8.20788 29.4281 8.30993 29.4783 8.42923C29.5113 8.50715 29.5204 8.56269 29.5104 8.61123C29.1404 8.32522 28.7509 8.06575 28.3447 7.83472C28.3277 7.95201 28.2454 8.09154 28.1932 8.10569C28.154 8.1158 28.0616 8.1189 27.9964 8.09962C28.4696 8.35791 28.9206 8.65552 29.3447 8.98937V8.99247C29.3618 9.11177 29.4953 9.16233 29.4953 9.16233L29.5706 9.17244C29.6238 9.21693 29.677 9.26236 29.7293 9.30792V9.45352C29.8457 9.42318 30.0254 9.56271 30.0586 9.67797L27.9834 11.7668C27.3993 11.2107 26.72 10.7657 25.9784 10.4534C25.2247 10.1368 24.4195 9.9627 23.6031 9.93977V6.93487C24.7926 6.95746 25.9677 7.20191 27.0688 7.65583H27.0697C27.368 7.77929 27.6599 7.91797 27.9442 8.07131C27.9372 8.06489 27.9319 8.05682 27.9288 8.04784C27.9256 8.03886 27.9247 8.02924 27.9261 8.01982C27.9431 7.91763 28.0094 7.67902 28.0094 7.67902C28.0074 7.67201 28.0065 7.6588 28.0044 7.64976C27.7468 7.51564 27.4835 7.39285 27.2153 7.28173C26.0675 6.80976 24.8427 6.55608 23.6031 6.53354V5.03514C23.7115 5.03716 23.7586 4.99564 23.7707 4.9502C23.7867 4.88145 23.8039 4.8642 23.9043 4.84708C24.0036 4.8309 23.8871 4.62558 23.7867 4.64284C23.7155 4.65497 23.6432 4.63165 23.6031 4.58622V3.81174C25.2043 3.83695 26.7575 4.15847 28.2022 4.74799L28.3478 4.37484C26.8568 3.76617 25.2556 3.43562 23.602 3.41028L23.6021 0.405373ZM28.0044 7.64976C28.1189 7.70841 28.2324 7.77109 28.3449 7.83486C28.3506 7.80576 28.3503 7.77579 28.3439 7.74683C28.3098 7.62752 28.4774 7.57697 28.5608 7.71245L28.7274 7.69627L28.7605 7.54259L28.5276 7.35453H28.3439C28.3439 7.35453 28.3268 7.49096 28.2103 7.44041C28.0929 7.38891 28.1601 7.40603 28.0597 7.38891C27.9694 7.37367 27.9874 7.56173 28.0046 7.64976H28.0044ZM27.9442 8.07131C27.9573 8.08345 27.9754 8.09261 27.9964 8.09962C27.9793 8.08959 27.9619 8.08015 27.9442 8.07131ZM26.3981 1.12027L26.2405 1.22137L26.1341 1.1537L26.0809 1.24065L26.2144 1.32558L26.2405 1.3427L26.2676 1.32545L26.4514 1.20628L26.3981 1.12027ZM27.1611 1.53278L27.0286 1.63996L26.9433 1.55301L26.873 1.6258L26.9895 1.74511L27.0216 1.77746L27.0558 1.74915L27.2234 1.61165L27.1611 1.53278ZM11.0676 1.61569C9.40702 2.2679 7.62599 2.93319 6.54881 4.64891C5.91832 5.65189 5.82689 6.84091 5.32999 7.87732C6.24962 7.00672 7.31878 6.36476 8.09785 5.3274C9.03462 4.08068 9.84783 2.69349 11.0676 1.61569ZM35.743 1.61569C36.9618 2.69349 37.7761 4.08068 38.7127 5.32727C39.4918 6.36476 40.5611 7.00672 41.4807 7.87732C40.9837 6.84091 40.8924 5.65189 40.2619 4.64891C39.1846 2.93319 37.4026 2.26777 35.743 1.61569ZM26.0096 1.82599C25.9253 1.81791 25.8169 1.85336 25.8068 1.89677C25.7897 1.96458 25.6904 1.9817 25.6904 1.9817L25.3069 2.01608C25.2727 2.11813 25.0729 2.18594 25.0559 2.11813C25.0197 1.96849 24.8058 2.30524 25.0227 2.374C25.2395 2.44275 25.4564 2.374 25.4564 2.374L25.5066 2.27194L26.3409 2.28906C26.4081 2.22031 26.4413 2.11813 26.4413 2.11813C26.4413 2.11813 26.6411 2.04937 26.7245 2.08375C26.8077 2.11826 26.7415 1.84514 26.6582 1.87965C26.5748 1.91295 26.4081 1.89677 26.4081 1.89677H26.107C26.1009 1.85134 26.0598 1.83112 26.0096 1.82599ZM24.5207 2.16976L24.3038 2.25469L24.0709 2.40837L23.8199 2.44275L23.6865 2.59643L24.2206 2.64698L24.321 2.81792L24.7054 2.8523L24.9555 3.10803C25.1723 3.17571 25.2225 3.07366 25.0889 2.95435L24.8711 2.73299V2.54493L24.8049 2.47618L24.7375 2.23757L24.5207 2.16976ZM6.5899 3.8906C5.74362 4.10899 5.03282 4.66104 4.39832 5.36879C3.07201 6.85007 3.18646 9.03601 3.36316 10.9863C3.41845 11.588 3.38833 12.1016 3.321 12.7183C3.72258 11.8893 4.38024 11.0985 5.15329 10.5102C6.87904 9.19778 8.7685 7.50013 8.7946 5.26876C8.22341 6.87434 6.48549 7.53963 5.32999 8.63765C4.71851 9.218 4.24973 9.91659 3.97665 10.6425L3.93449 10.6092C4.07798 9.96714 4.34906 9.38382 4.53285 8.76302C5.03577 7.0624 4.94648 5.02907 6.5899 3.8906ZM40.2207 3.8906C41.8642 5.02907 41.7748 7.06226 42.2779 8.76289C42.4615 9.38368 42.7317 9.96714 42.8762 10.6091L42.8341 10.6425C42.561 9.91659 42.0921 9.21787 41.4807 8.63752C40.3251 7.53949 38.5873 6.87421 38.016 5.26862C38.0421 7.50013 39.9306 9.19765 41.6563 10.51C42.4305 11.0985 43.088 11.8891 43.4896 12.7182C43.4224 12.1014 43.3923 11.5878 43.4465 10.9863C43.6241 9.03588 43.7386 6.84994 42.4124 5.36879C41.7779 4.66104 41.0671 4.10899 40.2207 3.8906ZM31.16 4.22938C31.0244 4.22736 30.8267 4.32038 30.8467 4.42148C30.8637 4.50736 30.93 4.59229 31.0636 4.62666L31.3146 4.71159C31.3146 4.71159 31.6267 5.08259 31.6147 4.89857C31.5816 4.38697 31.3476 4.36985 31.2644 4.26766C31.2432 4.24245 31.2051 4.23032 31.16 4.22924V4.22938ZM25.9273 4.43456L25.86 4.58824L25.9514 4.62963L26.0186 4.47594L25.9273 4.43456ZM26.2385 4.6024C26.2254 4.59121 26.1361 4.72885 26.0688 4.76012C26.1502 4.80259 26.2575 4.8642 26.2575 4.8642C26.3901 4.8642 26.4744 4.96746 26.4744 5.01788C26.4744 5.06951 26.6571 5.05226 26.6571 5.05226L26.6743 4.93295L26.5407 4.76215L26.4242 4.67722C26.4242 4.67722 26.2405 4.65996 26.2405 4.60846C26.2405 4.6055 26.2405 4.60347 26.2385 4.6024ZM26.0688 4.76012C25.9936 4.72076 25.9394 4.69744 26.0237 4.76215C26.0357 4.77226 26.0518 4.76821 26.0688 4.76012ZM25.5117 4.71065L25.5016 4.8127L25.6442 4.8278L25.7486 4.99361L25.8319 4.93902L25.7165 4.75203L25.7024 4.73073L25.6783 4.72871L25.5117 4.71065ZM21.6534 5.13826C21.5621 5.14123 21.4787 5.15849 21.4847 5.18882C21.5018 5.27375 21.6344 5.3758 21.6344 5.3758C21.6344 5.3758 21.8854 5.394 21.9014 5.44455C21.9184 5.49618 22.0861 5.51236 22.1022 5.46181C22.1192 5.41017 22.1855 5.30812 22.0359 5.30812C21.8854 5.30812 21.9184 5.22319 21.8682 5.1717C21.8432 5.14635 21.7448 5.1353 21.6534 5.13826ZM34.9579 5.30705C36.4498 6.84603 37.6003 8.63253 38.3774 10.5718C39.1194 12.42 39.521 14.4087 39.5451 16.4592H36.5622C36.5381 14.8234 36.2189 13.2369 35.6346 11.7588C35.55 11.5452 35.4599 11.3338 35.3646 11.1249C35.3927 11.0348 35.4438 10.9378 35.5522 10.9712C35.7189 11.0227 35.6024 10.596 35.6024 10.596C35.6024 10.596 35.3695 10.4252 35.3856 10.3403C35.4027 10.2543 35.1517 10.0844 35.1687 10.0157C35.1848 9.94692 34.9519 9.81144 34.9679 9.74268C34.9851 9.67501 34.8515 9.48695 34.8515 9.48695L34.6016 9.24833L34.5674 9.09465L34.3676 9.0774L33.9671 8.58305L33.9831 8.44649L33.8667 8.42937V8.24225L33.7502 8.1735L33.5664 8.15638L33.199 7.74683L33.1659 7.55985H32.9821L33.0093 7.27068L34.9579 5.30705ZM25.8901 5.30812V5.46181L26.0739 5.47893L26.0246 5.34142L25.8901 5.30812ZM11.8487 5.30907L13.9621 7.43731C12.9732 8.46351 12.1549 9.64336 11.5385 10.9316C10.7132 12.658 10.2719 14.5451 10.2454 16.461H7.26162C7.29067 14.0072 7.85998 11.6423 8.90705 9.49881C9.66167 7.95447 10.6545 6.54031 11.8487 5.30893V5.30907ZM26.7053 6.10471C26.6872 6.10673 26.6743 6.11388 26.6743 6.12601C26.6743 6.17751 26.7415 6.17751 26.7747 6.2797C26.8077 6.38175 26.7907 6.55268 26.9413 6.58706C27.0919 6.62144 27.125 6.65474 27.1421 6.72349C27.1582 6.79116 27.3418 6.80842 27.3418 6.80842L27.4754 6.87717L27.8759 7.21783V7.08141C27.8759 7.08141 27.8589 6.94498 27.7755 6.94498C27.6923 6.94498 27.5426 6.8428 27.5758 6.77512C27.6089 6.70637 27.2916 6.63856 27.2916 6.63856C27.2916 6.63856 27.0085 6.36557 27.108 6.399C27.2084 6.43338 27.1582 6.2797 27.1582 6.2797C27.1582 6.2797 26.9583 6.31407 26.9081 6.29682C26.8579 6.2797 26.874 6.12601 26.874 6.12601C26.874 6.12601 26.7615 6.0977 26.7053 6.10471ZM17.5311 6.22806L17.4599 6.30086L17.5603 6.40291L17.6315 6.33119L17.5311 6.22806ZM3.08312 6.9319C3.04096 6.92382 3.01686 6.95725 2.98366 6.97437C1.83821 8.44541 1.07412 10.0571 1.07412 12.0317C1.07412 14.4725 2.46763 16.1751 2.64138 18.4671C2.99973 16.076 4.9936 14.3774 6.02567 12.2733C6.42833 11.4523 6.67825 10.5273 6.78976 9.62432C6.63622 10.0201 6.39759 10.3768 6.091 10.6688C4.7497 11.9498 3.16946 13.2117 2.8652 15.0245C2.82209 15.2834 2.8 15.5503 2.72464 15.801C2.66641 15.8264 2.66641 15.7596 2.64138 15.7424L2.80804 13.4938C2.97068 11.3027 1.82214 8.86399 3.08312 6.9319ZM43.7265 6.9319C44.9886 8.86399 43.84 11.3027 44.0027 13.4938L44.1683 15.7424C44.1442 15.7596 44.1442 15.8264 44.085 15.801C44.0107 15.5503 43.9886 15.2834 43.9454 15.0245C43.6413 13.2117 42.0599 11.9499 40.7197 10.6688C40.4131 10.3769 40.1745 10.0202 40.021 9.62445C40.1323 10.5273 40.3824 11.4525 40.7849 12.2735C41.817 14.3774 43.8099 16.076 44.1683 18.4673C44.343 16.1751 45.7365 14.4725 45.7365 12.0317C45.7365 10.0572 44.9725 8.44555 43.8269 6.97437C43.7939 6.95725 43.7698 6.92382 43.7265 6.9319ZM23.2046 6.93393V9.93883C22.2941 9.96512 21.3987 10.1799 20.5742 10.5697C19.9319 10.8733 19.3416 11.2777 18.8253 11.7678L16.7139 9.64158C17.443 8.9346 18.2782 8.34772 19.1887 7.90253C20.4276 7.29683 21.7899 6.96224 23.2046 6.93393ZM14.2392 7.71757L16.1537 9.64468C15.3774 10.4576 14.7412 11.3953 14.2713 12.4191L14.2704 12.4181C13.6866 13.6865 13.3716 15.0635 13.3456 16.4613H10.643C10.6722 14.5817 11.0998 12.7698 11.8839 11.1198C12.4733 9.87924 13.2633 8.73161 14.2392 7.71757ZM31.2865 9.00568C31.5194 9.14319 31.693 9.46161 31.664 9.52133C31.6308 9.589 31.8637 9.57282 31.8637 9.57282C31.8978 9.26546 32.1809 9.36764 32.1981 9.46969C32.2151 9.57282 32.2643 9.79431 32.2643 9.79431L32.3476 9.94692L32.4651 10.0672L32.6488 10.05L32.699 10.1521L32.9158 10.1865C32.9158 10.1865 33.0996 10.3907 33.1157 10.4423C33.1327 10.4929 33.3827 10.4767 33.4499 10.4929C33.5162 10.5102 33.6166 10.5617 33.6327 10.6466C33.6498 10.7325 33.7502 10.869 33.7502 10.869C33.7502 10.869 33.9499 10.9196 33.9671 10.9883C33.9841 11.056 34.0675 11.2098 34.0675 11.2098L34.2341 11.3462L34.2502 11.4999L34.4338 11.517L34.484 11.7213L34.7843 11.7042L34.9519 11.5849C35.0006 11.5587 35.0476 11.5293 35.0924 11.4968C35.1537 11.6354 35.212 11.7759 35.2682 11.9174C35.8381 13.364 36.1412 14.9031 36.1627 16.4592H33.462C33.4519 15.9812 33.4086 15.5045 33.3325 15.0326C33.3495 14.9639 33.3587 14.9032 33.3336 14.878C33.2834 14.8263 33.3838 14.5877 33.3838 14.5877C33.3838 14.5877 33.4501 14.4513 33.3838 14.3147C33.3165 14.1783 33.3999 14.0246 33.4501 13.9559L33.3165 13.8881L33.183 13.871L33.0816 13.8881C33.0503 13.7798 33.0175 13.6719 32.9832 13.5645V13.5636L33.0666 13.5808V13.4787L32.945 13.4443C32.922 13.3735 32.8959 13.3027 32.8707 13.233L32.8497 12.8812L32.7332 12.7963L32.7663 12.6597L32.6329 12.6082L32.7001 12.3867L32.5827 12.1481H32.414C32.3337 11.9863 32.2493 11.8266 32.161 11.6688C32.0907 11.7174 32.1659 11.773 32.1659 11.773L31.7704 11.7902C31.7985 11.8398 31.8266 11.8903 31.8547 11.9409C31.8186 11.9753 31.7985 12.0117 31.7985 12.0117L31.5314 12.046V12.319L31.398 12.3696L31.414 12.5404L31.5977 12.5233C31.5977 12.5233 31.5977 12.7284 31.6479 12.6426C31.6981 12.5576 32.1157 12.6597 32.0816 12.865C32.0686 12.9489 32.4993 13.1713 32.4491 13.4443C32.4843 13.4494 32.5113 13.4605 32.5334 13.4737C32.6138 13.7081 32.6851 13.9455 32.7473 14.1855L32.7161 14.2461C32.7161 14.2461 32.7422 14.2643 32.7774 14.2996C32.8296 14.5099 32.8738 14.7223 32.912 14.9357C32.8988 15.1227 32.8577 15.3006 32.7654 15.3552C32.5655 15.4745 32.7824 15.4058 32.7824 15.4058L32.7493 15.7819C32.7995 15.9517 32.8818 15.8668 32.932 15.7819C32.9591 15.7364 32.9862 15.7102 33.0153 15.6828C33.0414 15.9396 33.0575 16.1984 33.0635 16.4593H31.0455C31.0556 16.4451 31.0797 16.4137 31.0797 16.4137L31.1629 16.1742L31.4471 16.0892L31.4802 15.8679L31.3306 15.8506C31.3306 15.8506 31.4973 15.5433 31.5806 15.5433C31.664 15.5433 32.2151 15.5433 32.2643 15.5089C32.3145 15.4756 32.4149 15.2026 32.4149 15.151C32.4149 15.0995 32.5484 15.0822 32.5986 15.066C32.6488 15.0489 32.7652 14.9124 32.7984 14.8436C32.8326 14.7749 32.7161 14.3482 32.6488 14.4169C32.5825 14.4857 32.4319 14.5191 32.4319 14.5191L32.3817 14.7072L32.2985 14.7748C32.2985 14.7748 32.3155 14.8265 32.2985 14.9458C32.2813 15.0651 32.1318 15.1339 32.1318 15.1339L32.0645 15.2188C32.0645 15.2188 31.6629 15.241 31.6147 15.2188C31.4641 15.15 31.5645 14.9458 31.6649 14.9629C31.7644 14.9802 31.6479 14.6728 31.6479 14.6728L31.7814 14.6555C31.7814 14.6555 31.7974 14.3482 31.8476 14.3482C31.8978 14.3482 31.8316 14.2461 31.7644 14.1956C31.697 14.1439 31.6138 13.9731 31.5475 13.9903C31.4802 14.0075 31.2131 13.9903 31.2131 13.9903L31.1629 14.0934L30.9793 14.1268C30.9793 14.1268 30.9953 14.2592 30.9632 14.2976C30.8628 14.4169 30.4793 14.6728 30.6459 14.2461L30.6961 14.1439V13.9903L30.3959 13.9741C30.3959 13.9741 30.2453 13.9226 30.2453 13.8538C30.2453 13.786 30.2292 13.7011 30.2292 13.7011L29.8778 13.3088L29.4613 13.2573L29.4281 13.1724L29.1781 13.138C29.1431 13.1199 29.1065 13.1053 29.0686 13.0944C28.9508 12.9051 28.8235 12.7219 28.6871 12.5455C28.6842 12.5323 28.6791 12.5161 28.6771 12.5071C28.6621 12.4464 28.4783 12.1865 28.3779 12.1744C28.3398 12.1319 28.3036 12.0894 28.2655 12.0481L30.3397 9.95811C30.412 10.0239 30.405 10.0511 30.4963 10.1179C30.5295 10.1421 30.5605 10.1543 30.5897 10.1574C30.6449 10.218 30.6981 10.2796 30.7504 10.3414L30.7131 10.3919C30.7131 10.5881 30.8046 10.5315 30.8949 10.5153C30.922 10.5486 30.9491 10.5829 30.9762 10.6173C30.9862 10.7306 30.9862 10.8923 31.164 10.8692H31.1689C31.3828 11.159 31.5802 11.4608 31.7603 11.773L31.7151 11.6194L31.5816 11.4323C31.686 11.3787 31.8788 11.3666 31.952 11.316C31.8357 11.1273 31.7132 10.9425 31.5846 10.762C31.5886 10.7528 31.5926 10.7427 31.5977 10.7326C31.6649 10.6133 31.6308 10.5456 31.5143 10.5112C31.3969 10.4769 31.3969 10.4769 31.3637 10.3403C31.3306 10.2039 31.1971 10.1695 31.1971 10.1695L31.1469 9.96525L31.0224 10.0441C30.9564 9.96678 30.8892 9.8906 30.8206 9.81561L30.8809 9.62351C30.8146 9.6103 30.7805 9.57296 30.7624 9.53251L31.2865 9.00568ZM31.952 11.3159C32.0241 11.432 32.0938 11.5497 32.1609 11.6688C32.1769 11.6577 32.1981 11.6466 32.2322 11.6374C32.3206 11.6121 32.3536 11.6082 32.3647 11.6091L32.3496 11.4321L32.199 11.3301L32.1488 11.1249C32.1488 11.1249 31.9652 11.1593 31.9822 11.2613C31.9862 11.2845 31.9732 11.3007 31.952 11.3159ZM32.3647 11.6091L32.3657 11.6203C32.3657 11.6203 32.3777 11.6111 32.3647 11.6091ZM31.7603 11.7729L31.7653 11.7902H31.7704C31.7664 11.7841 31.7633 11.778 31.7603 11.7729ZM20.5651 9.41307L20.5008 9.49194L20.6012 9.57687L20.6645 9.498L20.5651 9.41307ZM20.1826 9.48681L20.1996 9.67501H20.4497C20.5501 9.67501 20.3663 9.5557 20.3663 9.5557C20.3663 9.5557 20.1666 9.57188 20.1826 9.48695V9.48681ZM31.2814 9.51728L31.1821 9.52834L31.1981 9.68202L31.2985 9.67096L31.2814 9.51728ZM16.4318 9.92467L18.5431 12.052C18.1035 12.5223 17.7333 13.0539 17.4438 13.6303C17.3695 13.6294 17.2992 13.6445 17.2792 13.7011C17.229 13.8366 17.0121 13.8031 17.0121 13.8031L16.978 13.871L16.8113 13.9053L16.7781 14.0074L16.5773 14.0418L17.0784 14.0246C17.2118 14.0074 17.0282 14.3147 16.9448 14.2976L16.7119 14.3147L16.6275 14.3997H16.4107L16.3113 14.5361L15.9941 14.519C15.9941 14.519 15.8103 14.6727 15.8274 14.7242C15.8435 14.7747 15.7933 14.9284 15.7431 14.9284C15.6929 14.9284 15.5934 15.0821 15.6266 15.1337C15.6597 15.1843 15.5262 15.3551 15.5262 15.3551L15.493 15.526L15.3927 15.5604V16.0204L15.1929 16.1569V16.3621L15.1006 16.4612H13.7432C13.7702 15.1084 14.0714 13.8031 14.6167 12.607V12.6059C15.0686 11.6162 15.6822 10.7098 16.4318 9.92454V9.92467ZM31.9832 10.1673C31.9601 10.1694 31.948 10.1866 31.948 10.221C31.948 10.2897 32.0314 10.323 31.9982 10.409C31.9912 10.4258 31.9883 10.4441 31.99 10.4622C31.9916 10.4803 31.9976 10.4977 32.0076 10.5129C32.0175 10.5281 32.031 10.5406 32.0469 10.5493C32.0628 10.558 32.0805 10.5626 32.0986 10.5627C32.1649 10.5627 32.2151 10.596 32.2824 10.6304C32.3487 10.6648 32.3989 10.7153 32.4491 10.7841L32.6157 10.7326C32.6157 10.7326 32.6327 10.5627 32.5655 10.6133C32.4993 10.6648 32.4491 10.494 32.3817 10.5111C32.3155 10.5284 32.2824 10.4434 32.2151 10.3574C32.1488 10.2725 32.1649 10.2554 32.0816 10.2037C32.0404 10.1785 32.0062 10.1653 31.9832 10.1673ZM23.2046 10.3403V13.0661C22.8501 13.0853 22.5098 13.1581 22.1906 13.2744H22.1855L22.1685 13.0864L22.2528 13.0358L22.1183 12.9842L22.0188 13.1207L21.9857 13.2744L21.818 13.3077V13.3936H21.7016V13.4947C21.4564 13.6284 21.2276 13.7906 21.0199 13.978L19.1053 12.0499C19.5926 11.5875 20.1501 11.2066 20.7569 10.9216H20.7578C21.5259 10.563 22.3582 10.3651 23.2044 10.3402L23.2046 10.3403ZM23.6031 10.3414C24.3801 10.3656 25.1331 10.5315 25.8329 10.8276C26.5237 11.1195 27.1569 11.5339 27.7023 12.051L27.5939 12.1602C27.5397 12.1056 27.3579 12.0723 27.3579 12.0117C27.3579 11.9439 27.1912 11.858 27.2084 11.9611C27.2244 12.0632 27.0919 12.1137 27.0578 12.0804C27.0246 12.046 26.9242 12.1825 26.9242 12.1825C26.9242 12.233 26.8911 12.3018 26.9904 12.319C27.0919 12.3361 27.2746 12.2512 27.2916 12.3534C27.2977 12.3878 27.3027 12.4181 27.3108 12.4453L26.6491 13.1106C26.5607 13.1156 26.4735 13.1036 26.4735 13.1036C26.4242 13.2573 26.1903 13.0874 26.2566 12.9843C26.3238 12.8821 26.3238 12.8145 26.3238 12.8145L26.2405 12.7972L26.1402 12.9843C25.9062 12.9843 25.8399 13.1207 25.8901 13.2057C25.9394 13.2917 25.8229 13.1895 25.7897 13.3088C25.7566 13.4281 25.8068 13.4281 25.9072 13.4787C26.0066 13.5303 25.856 13.5303 25.9233 13.6151C25.9655 13.6697 26.0618 13.6555 26.096 13.6677L25.9695 13.7961C25.854 13.8315 25.7225 13.8031 25.7225 13.8031C25.7194 13.8375 25.7004 13.8618 25.6732 13.879C25.4076 13.6579 25.1113 13.4771 24.7938 13.3421C24.845 13.3037 24.9303 13.3048 24.9715 13.1895C25.0387 13.0014 25.0719 12.6941 25.0719 12.6941C25.0719 12.6941 24.8049 12.6779 24.7877 12.7628C24.7717 12.8477 24.605 12.8992 24.605 12.8992C24.605 12.8992 24.4716 12.9498 24.5218 13.0186C24.572 13.0873 24.4214 13.1207 24.4214 13.1207C24.4214 13.1207 24.4303 13.1662 24.4263 13.2107C24.1585 13.1301 23.8822 13.0819 23.6031 13.0671V10.3414ZM32.4821 10.9197L32.2824 10.9368C32.3326 11.0046 32.433 11.0561 32.433 11.1249C32.433 11.1927 32.3989 11.2442 32.4993 11.2614C32.5997 11.2776 32.6659 11.2442 32.7001 11.3291C32.7331 11.414 32.7331 11.5506 32.7161 11.6194C32.7001 11.687 32.7331 11.7892 32.8165 11.7892C32.8998 11.7892 32.9169 11.8063 32.9169 11.858C32.9169 11.9095 33.0162 11.6699 33.0162 11.6699C32.933 11.6021 32.8667 11.4484 32.8667 11.4484C32.8667 11.4484 32.7833 11.2098 32.7833 11.1754C32.7833 11.1411 32.6659 11.1067 32.6167 11.0905C32.5665 11.0733 32.4821 10.9196 32.4821 10.9196V10.9197ZM30.8918 10.9874L30.7242 11.0046L30.7343 11.1057L30.9009 11.0896L30.8918 10.9874ZM30.9973 11.1078V11.1927H31.0977V11.1078H30.9973ZM30.8628 11.2786C30.8628 11.2786 30.7633 11.4151 30.5625 11.3464C30.5625 11.3464 30.5295 11.6709 30.43 11.7387H30.1962C30.1962 11.7387 30.2464 11.8245 30.2955 11.8751C30.3457 11.9267 30.4632 12.0288 30.3457 12.0975C30.2292 12.1653 30.3628 12.1481 30.3628 12.1481C30.3628 12.1481 30.3457 12.5071 30.1962 12.4555C30.0456 12.404 29.9954 12.6435 29.9954 12.7113C29.9954 12.779 30.5886 12.8053 30.4963 12.7113C30.4461 12.6597 30.5625 12.5404 30.5625 12.5404C30.5625 12.5404 30.9641 12.5748 31.0475 12.5748C31.1308 12.5748 31.1971 12.5576 31.1469 12.4727C31.0967 12.3867 30.9471 12.4049 30.9471 12.4049C30.9471 12.4049 30.7463 12.4555 30.5625 12.3534C30.3798 12.2512 30.5967 12.2168 30.6299 12.2168C30.6629 12.2168 30.8126 12.0975 30.7463 12.0117C30.6801 11.9267 30.7463 11.773 30.7463 11.8407C30.7463 11.9095 30.93 11.9439 30.9641 11.8924C30.9973 11.8418 30.9641 11.6881 30.8798 11.6365C30.7965 11.585 31.0304 11.5516 30.9641 11.4657C30.921 11.4089 30.8869 11.3458 30.8628 11.2786ZM31.1971 11.7902V11.9095H31.2974V11.7902H31.1971ZM31.4219 11.8499L31.3717 11.953L31.4612 11.9985L31.5114 11.8964L31.4219 11.8499ZM33.0423 11.9883C33.0053 12.0005 33.0765 12.1876 33.0334 12.2168C32.9832 12.2512 32.949 12.319 32.8988 12.3705C32.8486 12.4222 32.9992 12.4898 32.9992 12.5415C32.9992 12.592 33.0334 12.8478 33.0334 12.8478C33.0334 12.8478 33.1498 12.8994 33.1659 12.9681C33.1829 13.0358 33.167 13.1724 33.2161 13.1895C33.2663 13.2067 33.3667 13.2744 33.3335 13.3422C33.2994 13.411 33.2993 13.5474 33.2993 13.5474L33.3667 13.7011L33.5001 13.786C33.5001 13.786 33.5503 13.3766 33.466 13.3604C33.3827 13.3432 33.4169 13.1036 33.4169 13.1036C33.4169 13.1036 33.5001 12.7801 33.3667 12.7801C33.2331 12.7801 33.3335 12.6091 33.2502 12.5586C33.1668 12.5071 33.2161 12.2685 33.1829 12.1997C33.1498 12.1319 33.1498 12.047 33.0664 11.9955C33.0555 11.9883 33.0484 11.9874 33.0423 11.9883ZM28.9914 12.317L28.8237 12.3341L28.8337 12.4363L29.0014 12.4191L28.9914 12.317ZM26.4594 12.3231C26.4072 12.3231 26.357 12.3361 26.357 12.3361L26.09 12.3705L26.0728 12.4898L26.2566 12.5071C26.2566 12.5071 26.3399 12.5758 26.3399 12.6264C26.3399 12.6779 26.4574 12.7284 26.5237 12.7284C26.5909 12.7284 26.7736 12.592 26.7736 12.592C26.7736 12.592 26.8579 12.3534 26.7907 12.3705C26.7234 12.3878 26.5909 12.4898 26.5739 12.3878C26.5658 12.3361 26.5116 12.3231 26.4594 12.3231ZM18.8233 12.3332L20.4577 13.9792L20.3 13.9731C20.2328 14.1268 20.0662 13.9559 20.0662 13.9559C20.033 13.8538 19.7991 13.9559 19.7991 13.9559C19.7991 14.1439 19.4819 13.871 19.4819 13.871L18.8976 13.4443C18.5642 13.138 18.0632 13.5303 18.0462 13.6152C18.0552 13.7446 17.9427 13.7476 17.8374 13.7244C18.102 13.2179 18.4336 12.7499 18.8233 12.3332ZM25.3901 12.3766L25.2917 12.3988L25.3249 12.5525L25.4233 12.5303L25.3901 12.3766ZM25.9374 12.4049L25.5708 12.4211L25.5759 12.5233L25.9423 12.506L25.9374 12.4049ZM22.803 12.4383V12.5404H22.9364V12.4382L22.803 12.4383ZM23.6624 12.4555L23.6483 12.5566L23.7648 12.5738L23.7788 12.4716L23.6624 12.4555ZM23.8772 12.5071L23.8632 12.6082L23.9806 12.6253L23.9946 12.5242L23.8772 12.5071ZM22.5268 12.5415L22.5118 12.6426L22.6292 12.6587L22.6433 12.5576L22.5268 12.5415ZM25.2737 12.5444L25.2235 12.5617L25.2556 12.6577L25.3049 12.6415L25.2737 12.5444ZM29.3156 12.5869L29.2654 12.7062L29.3578 12.7466L29.408 12.6273L29.3156 12.5869ZM28.0758 12.6091C28.0758 12.6091 28.1762 12.6253 28.2605 12.6505C28.3398 12.7476 28.4161 12.8477 28.4894 12.9498L28.2766 12.9165L28.143 12.8992L27.892 12.8821C27.6421 13.0531 27.5919 13.2573 27.5919 13.2573C27.4774 13.4777 27.2274 13.2431 27.2345 13.0864L27.6782 12.6385C27.7053 12.6415 27.7314 12.6435 27.7585 12.6435C27.8589 12.6435 28.0758 12.6091 28.0758 12.6091ZM24.1041 12.6435V12.7456H24.2376V12.6435H24.1041ZM22.4144 12.6637L22.3903 12.7628L22.5239 12.7972L22.5489 12.6981L22.4144 12.6637ZM22.3673 12.8033L22.2689 12.8205L22.2859 12.9226L22.3843 12.9064L22.3673 12.8033ZM24.35 12.8042L24.2507 12.8082L24.2556 12.9286L24.356 12.9235L24.35 12.8042ZM29.6058 12.8478C29.5405 12.8478 29.4702 12.8568 29.4281 12.8649C29.3448 12.8821 29.3618 12.9498 29.4281 13.0358L29.6289 13.0014C29.6289 13.0014 29.7785 12.9327 29.7453 12.8821C29.7283 12.8558 29.6701 12.8478 29.6058 12.8478ZM28.4914 12.9518C28.5546 13.0397 28.6159 13.1288 28.6742 13.2198C28.655 13.2643 28.6481 13.3169 28.6601 13.3765C28.7103 13.6323 28.7936 13.7355 28.6269 13.7355C28.4593 13.7355 28.4261 13.5989 28.4261 13.5989C28.4261 13.5989 28.2936 13.5474 28.2936 13.6151C28.2936 13.6838 28.2434 13.8204 28.2936 13.8881C28.3428 13.9568 28.2264 14.059 28.1762 14.0074C28.126 13.9568 27.9924 13.8031 28.0256 13.7526C28.0597 13.7011 27.7927 13.3765 28.0597 13.3259C28.3268 13.2744 28.0426 13.1207 28.143 13.0873L28.2766 13.0186H28.41L28.4914 12.9518ZM0.636397 13.0165C0.369343 13.5837 0.260913 14.2227 0.120359 14.8396C-0.177752 16.436 0.120357 18.1305 0.551124 19.5975C1.08925 21.4327 2.8743 22.746 3.7788 24.4275L3.90236 24.5276C3.77077 23.6146 3.70357 22.6318 3.95951 21.7603C4.35012 20.3661 4.84006 19.0112 5.09801 17.5654C5.29787 16.4431 5.52771 15.1833 5.39625 14.0954C5.2466 14.6818 5.09306 15.2611 4.7738 15.7596C3.559 17.6533 2.31208 19.8747 3.16237 22.2779C3.14336 22.3042 3.11525 22.3377 3.08312 22.3204C2.74177 21.5257 2.66547 20.6218 2.44353 19.7705C1.85521 17.5128 0.131471 15.6271 0.636397 13.0165ZM46.1742 13.0165C46.6792 15.6271 44.9554 17.5127 44.3661 19.7705C44.1442 20.6218 44.0689 21.5257 43.7265 22.3204C43.6955 22.3377 43.6674 22.3042 43.6473 22.2779C44.4986 19.8747 43.2517 17.6533 42.0369 15.7596C41.7177 15.2611 41.563 14.6818 41.4145 14.0954C41.2829 15.1833 41.5128 16.4431 41.7126 17.5654C41.9696 19.0112 42.4606 20.3661 42.8511 21.7603C43.1071 22.6318 43.0398 23.6146 42.9084 24.5275L43.0318 24.4275C43.9364 22.746 45.7204 21.4327 46.2596 19.5975C46.6902 18.1305 46.9885 16.436 46.6902 14.8394C46.5487 14.2227 46.4412 13.5837 46.1742 13.0165ZM23.3712 13.4574L23.4033 13.8669L23.2196 13.8031H23.1031L23.0529 13.7011L22.9525 13.6838V14.059L23.0529 14.1439L23.1363 14.2289L23.3029 14.246L23.3371 14.4512L23.7537 14.4684L23.8039 14.5534L24.0539 14.5706L24.5378 15.065L24.5046 15.2186L24.4214 15.2692C24.4544 15.3894 24.2045 15.3208 24.2045 15.3208V15.4229L24.321 15.44L24.4384 15.5088L24.605 15.2186C24.7888 15.0993 24.8721 15.2692 24.8881 15.3723C24.9053 15.4744 24.8049 15.4573 24.8049 15.4573V15.6959L24.9053 15.7302C25.0719 15.9345 24.8379 16.0547 24.8379 16.0547L24.7877 16.2246C24.7386 16.3783 24.5548 16.3439 24.5548 16.3439L24.4886 16.447L24.2878 16.4976L24.6844 16.5492C24.7215 16.4127 24.8219 16.3783 24.8711 16.447C24.9213 16.5148 24.9213 16.6341 24.9213 16.6341L25.0217 16.6513L25.0057 16.8384L25.1061 16.8728V17.4187L25.2225 17.5552C25.4223 17.4702 25.4223 17.6068 25.3229 17.6745C25.2225 17.7432 25.2888 18.0496 25.2888 18.0496L25.2054 18.1355V18.2721L25.105 18.3398V18.5278C24.9383 18.4419 24.7375 18.4763 24.6873 18.5278C24.5378 18.4247 24.2206 18.4591 24.2206 18.5451C24.321 18.6815 24.1041 18.7149 24.1041 18.7149L23.9866 18.8514C24.0709 19.0223 23.9043 19.0394 23.9043 19.0394V19.364L23.7035 19.551L23.7146 19.8514C23.6122 19.8615 23.5087 19.8675 23.4033 19.8675C22.6223 19.8675 21.8843 19.5854 21.304 19.0697C21.3164 19.0624 21.3268 19.0519 21.3341 19.0394C21.4175 18.903 21.551 18.8857 21.551 18.8857L21.6012 18.7664L22.052 18.7837C22.0851 18.5956 22.3019 18.6644 22.3019 18.7493C22.3019 18.8352 22.4686 18.7664 22.4686 18.7664L22.5851 18.5794H22.7688L22.7858 18.3741L22.8692 18.3236V18.0162C23.1363 17.9313 23.1031 17.6745 23.1031 17.6745L23.1694 17.5895L23.1363 17.4702C23.0027 17.4187 23.069 17.2994 23.1533 17.3338C23.2367 17.3682 23.0359 17.1801 23.0359 17.1801C22.9364 17.266 22.8532 17.0779 22.8532 17.0779H22.6022V16.8393L22.569 16.6169L22.3191 16.4976L22.1353 16.6685L22.1011 16.9071V17.0608L21.9345 17.0952L21.9014 17.5552L21.7678 17.6068L21.785 17.7776L21.6012 17.8282L21.4175 17.8798L21.3843 18.1011L21.2508 18.1871L21.1835 18.3914L21.1023 18.8747C20.8694 18.6306 20.6765 18.3507 20.5309 18.0456C20.5621 17.9252 20.5661 17.811 20.5661 17.811C20.4165 17.7423 20.4999 17.5037 20.6665 17.7088C20.8332 17.9131 20.5661 17.2994 20.5661 17.2994L20.4326 17.1801L20.2599 17.1639C20.2342 16.998 20.2212 16.8304 20.2208 16.6625C20.2208 16.5917 20.2237 16.5218 20.2288 16.4522C20.2759 16.4036 20.3332 16.4288 20.3332 16.4288L20.4326 16.5148L20.5831 16.6341L20.6003 16.7362L20.4999 16.7867L20.4827 16.9243L20.5329 17.1114H20.6665C20.7167 16.8384 21.0671 16.8384 21.1675 17.0092L21.2679 16.7706C21.034 16.6513 21.2638 16.4632 21.3301 16.5481C21.3964 16.6341 21.551 16.3268 21.551 16.3268C21.551 16.3268 21.6685 16.4805 21.551 16.2751C21.4345 16.0709 21.6344 15.9689 21.6344 15.9689C21.6012 15.7635 21.8512 15.7979 21.8512 15.7979L21.8682 15.5249L21.6344 15.5078C21.5851 15.7464 21.3843 15.5422 21.4847 15.4906C21.5851 15.44 21.6846 15.3369 21.6846 15.3369V15.167L21.785 15.1326L21.801 14.9618H22.052L22.2689 14.8596L22.3191 14.7747L22.5529 14.7576L22.8862 14.4502L22.8532 14.3138C22.6533 14.3138 22.8532 14.1601 22.8532 14.1601L22.8862 13.9053H22.7026L22.6705 13.5434C22.9002 13.4887 23.1352 13.4598 23.3712 13.4574ZM33.5353 14.4473L33.5182 14.5837L33.6177 14.5969L33.6347 14.4603L33.5353 14.4473ZM33.4731 14.9072L33.4229 15.0094L33.5122 15.0548L33.5624 14.9528L33.4731 14.9072ZM16.1537 15.5847C16.3113 15.5755 16.4278 15.6615 16.4278 15.6615L16.6617 15.6453C16.719 15.6837 16.7571 15.7293 16.7821 15.7758C16.7619 15.9349 16.7471 16.0947 16.738 16.2549C16.7139 16.2994 16.6949 16.3268 16.6949 16.3268C16.6748 16.3571 16.6647 16.4067 16.6587 16.4613H16.0242L16.0272 16.4461L15.8435 16.4299C15.6427 16.3097 15.7431 15.8667 15.7431 15.8667C15.8817 15.6574 16.0302 15.5917 16.1537 15.5847ZM21.9516 15.9001L21.9184 15.986H21.8352L21.818 16.1225H21.9184L21.9356 16.2246L21.8682 16.2924L21.8352 16.3783L21.7016 16.4127L21.4004 16.7029L21.3843 16.8384L21.301 16.9586L21.2007 17.2145L20.8502 17.2307L20.783 17.538L20.8332 17.7938L21.1333 17.9131L21.1675 17.7432L21.2669 17.6917L21.2839 17.5208L21.3502 17.4015L21.4516 17.2822L21.4838 17.1457L21.6514 17.0436L21.8512 17.0092L21.9356 16.9071L21.9686 16.7029L21.9807 16.5492L22.052 16.4461L22.2517 16.3612V16.0376H22.1524L22.1353 15.9172L21.9516 15.9001ZM32.4239 16.0042L32.4069 16.1043L32.5906 16.1387L32.6086 16.0376L32.4239 16.0042ZM32.0062 16.1518L31.9571 16.1801L31.8326 16.2509L31.7242 16.1821L31.672 16.2681L31.8055 16.3531L31.8306 16.3692L31.8557 16.3551L31.956 16.2974L31.9692 16.3288L32.0615 16.2913L32.0283 16.2054L32.0062 16.1518ZM30.7212 16.8606H33.0624C33.0373 18.1482 32.7567 19.4178 32.2372 20.5946C31.7844 21.6221 31.1588 22.563 30.3879 23.376C30.3557 23.0333 30.2785 22.6561 30.2785 22.6561L30.1449 22.5884L30.1781 22.1779H29.9954L29.6942 22.5712L29.661 22.6793L29.4903 22.5064L29.5777 22.4175L29.5606 22.2122L29.6781 22.1101V21.9402L29.7785 21.9059L29.7946 21.5307L29.8778 21.5136V20.6946L29.6279 20.456C29.6108 20.5409 29.3437 20.5409 29.3437 20.5409C29.3437 20.5409 29.2775 20.6602 29.2273 20.6602C29.1771 20.6602 29.2946 20.8139 29.2605 20.916C29.2273 21.0181 29.0938 21.0181 29.0938 21.0181L28.8428 21.0869L28.7766 21.1718H28.5095L28.4874 21.0231C28.5145 20.9908 28.5406 20.9575 28.5667 20.9241L28.7766 20.8645L28.9432 20.7795L29.0265 20.6097C29.0436 20.4387 29.2444 20.456 29.2444 20.456C29.2444 20.456 29.6279 20.1314 29.644 19.9788C29.661 19.8251 29.7946 19.3984 30.0284 19.3984H30.4622C30.6288 19.3297 30.5786 19.1082 30.5786 19.1082L30.7955 19.0738L30.8296 19.1931C30.8296 19.1931 31.1299 19.2275 31.1629 19.1769C31.1971 19.1254 31.2633 19.0061 31.3467 19.0567C31.43 19.1082 31.697 18.9374 31.697 18.9374C31.7142 18.8181 32.1307 18.8696 32.1307 18.8696L32.1809 18.7159C32.1809 18.7159 31.8978 18.3236 31.8476 18.3236C31.7974 18.3236 31.5304 18.085 31.4973 18.1699C31.2302 18.1022 31.2463 17.7261 31.2463 17.7261L31.1469 17.4875C31.1469 17.3509 30.8969 17.0608 30.8457 17.0952C30.7413 17.0173 30.7151 16.9334 30.7212 16.8606ZM33.4611 16.8606H36.1627C36.1345 18.7291 35.7059 20.5005 34.9639 22.095H34.965C34.3628 23.3896 33.5509 24.5742 32.5626 25.6003L32.4892 25.5255L32.4662 25.0948L32.3819 25.0099L32.3658 24.5832C32.4321 24.3608 32.0485 24.0372 32.0153 24.106C31.9823 24.1736 31.7654 24.1221 31.7654 24.1909C31.7654 24.2586 31.6318 24.6003 31.6981 24.7196C31.7021 24.7257 31.7032 24.7317 31.7061 24.7378L30.6571 23.6802C31.4633 22.837 32.1182 21.8593 32.5927 20.7906V20.7896C33.1412 19.552 33.4366 18.2157 33.4611 16.8606ZM36.5613 16.8606H39.5451C39.515 19.3195 38.9396 21.6481 37.9367 23.7298H37.9377C37.1773 25.308 36.1694 26.7524 34.9528 28.0077L32.8485 25.8885C33.8796 24.8187 34.7109 23.6045 35.3233 22.2921H35.3223C36.1074 20.6117 36.5331 18.7695 36.5612 16.8606H36.5613ZM13.7432 16.8626H14.9138L14.9259 16.9588L14.6758 17.2316L14.709 17.5046L14.5584 17.5552L14.5252 17.6755L14.459 18.0335L14.6256 18.0506C14.709 18.0162 14.6919 18.2721 14.6256 18.3065C14.5584 18.3398 14.3746 18.4085 14.475 18.4763C14.5754 18.5451 14.208 18.5278 14.208 18.4258C14.208 18.3236 14.0083 18.2377 13.9581 18.2721C13.9289 18.2923 13.8898 18.2377 13.8617 18.1881C13.7923 17.7495 13.7527 17.3067 13.7432 16.8626ZM15.468 16.8626H15.5513C15.5945 16.8718 15.6266 16.89 15.6266 16.89L15.8605 16.9071L15.8837 16.8626H16.6777L16.7451 17.2994L16.5271 17.4864C16.3444 17.5895 16.3444 17.8282 16.5443 17.8798C16.6777 17.896 16.6275 18.2204 16.4278 17.9991C16.1276 17.9991 16.5945 18.2711 16.4609 18.2033C16.7621 18.357 16.6949 18.0668 16.6949 18.0668L16.8455 17.9445C16.9092 18.278 16.9978 18.6061 17.1105 18.9262C17.4203 19.8003 17.9075 20.5998 18.5411 21.2739L16.4318 23.3992C16.2955 23.256 16.1636 23.1087 16.0363 22.9574C16.0613 22.8513 16.1276 22.741 16.1276 22.741C16.3444 22.6046 16.0774 22.3831 16.0774 22.3831C16.1106 22.1779 15.9609 21.9393 15.9609 21.9393C15.6608 21.734 15.7431 21.3417 15.7431 21.3417V21.0687C15.4931 20.8301 15.8435 20.7957 15.8435 20.7957C15.96 20.5915 15.7601 20.4378 15.7601 20.4378L15.7431 20.2164L15.4761 20.1821L15.4429 19.3802L14.8425 18.5107C14.7251 18.4763 14.8083 18.2711 14.8083 18.2711C14.9589 18.1862 14.7753 17.982 14.7753 17.982L14.7582 17.6068L15.1086 17.5724L15.1929 17.436H15.3596L15.3425 16.9921C15.3736 16.9102 15.4208 16.8748 15.468 16.8626ZM19.6425 16.8626H19.8322C19.8382 16.982 19.8513 17.1002 19.8694 17.2175L19.7659 17.2478L19.7318 17.1801L19.6816 17.3671H19.3815L19.3654 17.1629L19.5491 17.1114L19.6153 17.0093L19.6425 16.8626ZM24.588 17.0952C24.5608 17.0911 24.5298 17.1124 24.5046 17.1801V17.4016C24.5046 17.4016 24.7386 17.7767 24.8219 17.8282C24.9053 17.8798 25.0398 17.7665 24.9555 17.7088C24.7054 17.538 24.7226 17.3166 24.6552 17.1629C24.6412 17.1296 24.6161 17.1002 24.588 17.0952ZM15.8605 17.2479L15.8776 17.3672H15.9609C16.0934 17.6068 15.977 18.1861 15.977 18.1861C15.977 18.1861 15.7772 18.2033 15.7431 18.1011C15.7099 17.9991 15.6266 18.3226 15.6938 18.3741C15.7601 18.4247 15.9941 18.3741 16.0102 18.5622C16.0272 18.7493 16.1608 18.4419 16.1608 18.4419V17.2822L15.8605 17.2479ZM23.8873 17.5906L23.587 17.8121C23.7376 17.8292 23.7537 17.9829 23.7708 18.0507C23.8069 18.1993 23.8039 17.811 23.8701 17.8292C23.9375 17.8454 23.8873 17.5906 23.8873 17.5906ZM17.2118 17.7292C17.3535 17.7787 17.513 18.0103 17.513 18.0496C17.513 18.1013 18.1797 18.0669 18.1797 18.0669C18.3634 18.1861 18.4306 18.4934 18.4306 18.4934C18.6144 18.2539 18.998 18.4763 18.7138 18.6127C18.9808 18.7826 18.9808 18.9363 18.9808 18.9363C19.1977 18.8686 19.1987 19.0394 19.1987 19.09C19.1987 19.1416 19.265 18.8342 19.265 18.8342C19.015 18.6462 19.5983 18.5785 19.4317 18.9192L19.3313 19.0728L19.4989 19.2093L19.5149 19.6016C19.8824 19.5683 19.782 19.1072 19.782 19.1072L19.9486 19.0728C19.9486 18.9192 20.0662 19.005 20.0662 19.005C19.9848 18.6017 20.1445 18.4318 20.2498 18.364C20.3837 18.6161 20.5472 18.851 20.7368 19.0637L18.8233 20.9909C18.2405 20.368 17.7897 19.6322 17.498 18.8283C17.3703 18.4713 17.2745 18.1034 17.2118 17.7292ZM32.3286 18.1265C32.192 18.1173 32.0153 18.2206 32.0655 18.2893C32.1659 18.4258 32.3326 18.357 32.3989 18.3743C32.4661 18.3914 32.5323 18.4258 32.4661 18.2215C32.445 18.1568 32.3908 18.1305 32.3286 18.1265ZM16.4609 18.3662C16.4515 18.3661 16.4422 18.368 16.4336 18.3716C16.4249 18.3752 16.417 18.3806 16.4104 18.3874C16.4038 18.3941 16.3985 18.4022 16.395 18.411C16.3914 18.4199 16.3896 18.4294 16.3897 18.439C16.3898 18.4581 16.3974 18.4764 16.4108 18.4899C16.4241 18.5033 16.4421 18.5108 16.4609 18.5107C16.4794 18.5105 16.4972 18.503 16.5104 18.4895C16.5235 18.4761 16.531 18.458 16.5311 18.439C16.5313 18.4198 16.5239 18.4014 16.5107 18.3877C16.4976 18.3741 16.4796 18.3663 16.4609 18.3662ZM16.2772 18.5956L16.0262 18.7664L15.8596 18.6644V19.0738L16.1276 19.4317L16.227 19.1922L16.2612 19.0394L16.1436 18.9879L16.1597 18.732L16.2612 18.7149L16.2772 18.5956ZM22.4516 19.0223L22.3019 19.0394L22.3191 19.278L22.4184 19.363L22.6022 19.4146C22.6022 19.4146 22.8521 19.3458 22.8692 19.1416L22.4857 19.1243L22.4516 19.0223ZM24.5559 19.1527C24.6954 19.1527 24.6663 19.4935 24.6583 19.6076C24.5588 19.6501 24.4584 19.6885 24.354 19.7209V19.3468L24.5207 19.1587C24.5321 19.1549 24.5439 19.1529 24.5559 19.1527ZM21.0209 19.3488C21.5978 19.8718 22.3294 20.1894 23.1031 20.2527L23.1151 20.1567C23.1403 20.0293 23.3902 20.0161 23.4033 20.1314C23.4154 20.2466 23.4033 20.3235 23.4033 20.3235L23.4786 20.3488C23.4786 20.3488 23.4656 20.4257 23.4033 20.4257C23.34 20.4257 23.4033 20.4641 23.3652 20.5025L23.4033 20.5661C23.4284 20.5409 23.4535 20.643 23.5037 20.6299C23.5529 20.6178 23.579 20.7198 23.5288 20.7198C23.4786 20.7198 23.4786 20.7836 23.4786 20.8099C23.4786 20.8352 23.4786 20.8988 23.4404 20.9373C23.4033 20.9757 23.3652 20.9505 23.315 20.9241C23.2748 20.9038 23.2467 20.9009 23.2055 20.8998V21.0696C23.1825 21.0636 23.1613 21.0606 23.1363 21.0525V21.1718L23.0027 21.189L23.1192 21.3244L23.2055 21.3356V21.6147L23.2026 21.6318C23.2026 21.8533 22.6524 21.6996 22.6022 21.6491L22.5851 21.9564L22.4847 21.9726L22.5018 22.1778L22.4847 22.468L22.6684 22.4336V22.553L23.1192 22.5701L23.2055 22.4771V22.7925L23.2026 22.8087L22.9014 22.8431L22.7688 22.9118L22.7186 22.8087H22.5851L22.5027 22.925C22.1096 22.8676 21.7228 22.7732 21.3472 22.6429V22.6419C20.5209 22.3548 19.7599 21.8937 19.1073 21.277L21.0209 19.3488ZM23.2055 20.8998V20.2608C23.1714 20.2588 23.1372 20.2558 23.1031 20.2527V20.2588C23.1031 20.2588 23.0408 20.4124 23.1151 20.4387C23.1905 20.4641 23.1653 20.4762 23.2026 20.5146L23.1653 20.6046C23.1031 20.5207 23.0649 20.6683 23.1031 20.7067C23.1403 20.7452 23.0147 20.7198 23.0147 20.7714C23.0147 20.822 22.9777 20.8472 23.0147 20.8735C23.0529 20.8988 23.0027 20.9119 22.9525 20.9503C22.9023 20.9888 23.1653 21.0009 23.1653 21.0009C23.1653 21.0009 23.1151 20.8988 23.1774 20.8988C23.1894 20.8988 23.1965 20.8998 23.2055 20.8998ZM5.11207 19.5148C5.33696 21.001 4.75171 22.3134 4.61611 23.7269C4.50473 24.8876 4.70647 26.017 5.15423 26.9926C5.28676 27.2818 5.52771 27.5437 5.59504 27.8379C5.16227 27.4456 4.85612 26.9441 4.55788 26.4578C3.16344 24.1839 0.23789 22.7057 0.0391052 19.9385C-0.0612912 21.1689 0.0440581 22.4742 0.451667 23.5682C1.0179 25.0858 2.1062 26.2525 3.36022 27.2474C4.65734 28.2767 6.20545 29.0806 7.38611 29.9854C7.15319 29.3929 6.7757 28.846 6.62203 28.2212C5.92635 25.3951 6.31482 22.1284 5.11207 19.5148ZM41.6976 19.5148C40.4958 22.1284 40.8833 25.3951 40.1886 28.2212C40.035 28.846 39.6575 29.3929 39.4246 29.9854C40.6053 29.0806 42.1534 28.2767 43.4505 27.2474C44.7044 26.2525 45.7927 25.0858 46.358 23.5682C46.7656 22.4742 46.872 21.1689 46.7716 19.9385C46.5728 22.7057 43.6473 24.1839 42.2527 26.4578C41.9546 26.9441 41.6483 27.4456 41.2157 27.8379C41.2829 27.5437 41.5238 27.2818 41.6563 26.9926C42.1032 26.017 42.306 24.8876 42.1945 23.7269C42.0579 22.3134 41.4736 21.001 41.6976 19.5148ZM27.1521 19.5734C27.1963 19.5743 27.2274 19.5956 27.2084 19.6533C27.1582 19.807 27.2084 19.8758 27.2084 19.8758C27.4252 19.6705 27.6089 19.8919 27.5919 19.9434C27.5747 19.9951 27.7093 20.0456 27.7916 19.9951C27.8759 19.9434 27.9754 20.1477 27.9422 20.2499C27.9091 20.353 27.6089 20.3357 27.5919 20.2337C27.5747 20.1306 27.5245 20.1649 27.4915 20.2164C27.4634 20.26 27.3509 20.2903 27.2666 20.267L27.1953 20.1953C27.2023 20.1771 27.2184 20.1589 27.1912 20.1306C27.1671 20.1063 27.1381 20.1052 27.106 20.1052L26.9534 19.9526C26.9554 19.8475 26.9844 19.714 26.9744 19.6705C26.9643 19.628 27.0779 19.5714 27.1521 19.5734ZM16.2942 19.6361L16.1778 19.6533L16.1597 19.7898L16.2942 19.807V19.6361ZM37.1536 19.7848C37.0843 19.7888 37.002 19.8272 36.9558 19.8585L37.0111 19.9434C37.0753 19.9 37.1577 19.8798 37.1767 19.8888C37.1747 19.8879 37.1726 19.8848 37.1717 19.8828L37.271 19.8666C37.2687 19.8509 37.2624 19.836 37.2528 19.8235C37.2431 19.8109 37.2304 19.8011 37.2159 19.7949C37.1962 19.7867 37.1749 19.7833 37.1536 19.7848ZM16.3404 19.9567C16.331 19.9567 16.3218 19.9587 16.3131 19.9624C16.3045 19.9661 16.2967 19.9715 16.2902 19.9783C16.2836 19.9851 16.2785 19.9931 16.2751 20.0019C16.2716 20.0106 16.2699 20.02 16.2701 20.0295C16.2701 20.0688 16.3013 20.1012 16.3404 20.1012C16.3796 20.1012 16.4107 20.0688 16.4107 20.0295C16.4109 20.02 16.4092 20.0106 16.4057 20.0019C16.4023 19.9931 16.3971 19.9851 16.3906 19.9783C16.3841 19.9715 16.3763 19.9661 16.3677 19.9624C16.359 19.9587 16.3498 19.9567 16.3404 19.9567ZM24.6633 20.0385C24.6663 20.083 24.6884 20.1306 24.6884 20.1306L24.7717 20.1649L24.6211 20.2842L24.4876 20.4379L24.321 20.3874L24.1211 20.3701L24.0539 20.2508L23.9375 20.2337L23.9203 20.4723L23.8371 20.5744L23.6372 20.7797C23.8471 20.7797 23.7065 20.8939 23.6041 20.9435V20.2609C23.818 20.2489 24.0303 20.2178 24.2386 20.1679C24.2587 20.1861 24.2708 20.1993 24.2708 20.1993H24.4214L24.4303 20.1164C24.5088 20.0929 24.5864 20.0669 24.6633 20.0385ZM16.4569 20.3146C16.4475 20.3145 16.4382 20.3164 16.4295 20.32C16.4209 20.3236 16.413 20.329 16.4064 20.3358C16.3998 20.3425 16.3945 20.3506 16.391 20.3595C16.3874 20.3683 16.3856 20.3778 16.3856 20.3874C16.3856 20.3969 16.3874 20.4064 16.391 20.4153C16.3945 20.4242 16.3998 20.4322 16.4064 20.439C16.413 20.4457 16.4209 20.4511 16.4295 20.4547C16.4382 20.4584 16.4475 20.4602 16.4569 20.4602C16.4756 20.46 16.4935 20.4523 16.5067 20.4386C16.5199 20.425 16.5272 20.4065 16.5271 20.3874C16.5272 20.3682 16.5199 20.3498 16.5067 20.3361C16.4935 20.3225 16.4756 20.3147 16.4569 20.3146ZM22.7658 20.3681C22.6814 20.3641 22.6102 20.6269 22.577 20.6947C22.577 20.6947 22.6152 20.8352 22.6895 20.8231C22.7648 20.81 22.815 20.7716 22.8773 20.7584C22.9395 20.7462 22.9656 20.6431 22.9897 20.5411C23.0147 20.4389 22.9645 20.3874 22.9645 20.3874C22.9645 20.3874 22.9023 20.4905 22.803 20.3874C22.7931 20.3769 22.78 20.3701 22.7658 20.3681ZM16.1436 20.5067L16.0021 20.5229V20.6431L16.1436 20.626V20.5067ZM26.1903 20.5067H26.3068L26.3238 20.5916L26.8338 20.6401L26.8579 20.6431C27.0578 20.7624 26.9574 20.9161 26.8911 20.9495C26.8238 20.9839 26.7073 20.9839 26.7073 20.9839L26.6743 21.0527L26.2405 21.086L26.2064 21.2569C25.9896 21.2225 25.9062 21.4611 25.9564 21.5804C26.0066 21.6997 25.9564 21.8029 25.9564 21.8029L26.1402 21.8878L26.3731 21.82C26.4072 21.6492 26.5567 21.6148 26.6903 21.5126C26.8238 21.4106 27.0417 21.6997 26.9744 21.8362C26.9678 21.8502 26.9614 21.8644 26.9554 21.8786C26.291 22.3396 25.5438 22.6659 24.7556 22.8392L24.7375 22.8261L24.5539 22.7744L24.5378 22.5197C24.5046 22.3489 24.1874 22.3489 24.2034 22.4682C24.2206 22.5875 23.6082 22.5197 23.6041 22.5197V22.0496L23.7708 21.8705L24.1543 21.7856C24.1874 21.6148 24.354 21.82 24.354 21.82C24.5207 21.8029 24.5548 21.9222 24.5548 21.9222L24.7717 21.9566C24.9555 22.0081 24.844 22.0253 24.8551 22.093C24.8711 22.1952 24.9555 22.1608 24.9555 22.1608L24.9885 21.9393L25.0889 21.9566L24.9885 21.8372L24.8049 21.7512L24.6041 21.6663C24.4705 21.4783 24.6382 21.5126 24.7717 21.5299H24.9885C24.9885 21.5299 25.2395 21.8705 25.2395 21.9566C25.2395 22.0415 25.356 22.0586 25.356 22.0586L25.5056 22.0415L25.5558 22.1608H25.7064L25.7566 22.2628H26.0568L26.0739 22.1102L25.7897 22.0586L25.7727 21.8878L25.5728 21.8362C25.5056 21.547 25.623 21.4621 25.7064 21.5986L25.8058 21.6148L25.7727 21.3589L25.8892 21.3246L25.856 20.9667L25.7566 20.9323V20.813L26.1732 20.8302C26.1402 20.6087 26.1903 20.5067 26.1903 20.5067ZM38.268 21.2852L38.1786 21.3306C38.1897 21.354 38.1927 21.3771 38.1947 21.4005C38.1967 21.4308 38.1998 21.4652 38.2288 21.4863C38.2459 21.5005 38.269 21.5045 38.2961 21.4996L38.277 21.4005C38.285 21.4014 38.2951 21.4086 38.2971 21.4156C38.296 21.4126 38.2951 21.4005 38.2941 21.3913C38.2926 21.3545 38.2837 21.3184 38.268 21.2852ZM38.1717 21.4742L38.0742 21.4996C38.0994 21.6036 38.1365 21.7058 38.1385 21.7099L38.2328 21.6735C38.2318 21.6724 38.1947 21.5723 38.1717 21.4742ZM30.3377 21.5733V21.8979H30.4541V21.5733H30.3377ZM26.7314 21.6573L26.598 21.7422L26.6511 21.8292L26.7847 21.7432L26.7314 21.6573ZM37.6104 21.8918C37.6023 21.9727 37.6215 22.0718 37.6998 22.088L37.7199 21.9878H37.7219C37.7138 21.9808 37.7058 21.9404 37.7098 21.902L37.6104 21.8918ZM24.2376 22.0759V22.281V22.0759ZM37.5542 22.0829C37.524 22.0849 37.4839 22.1173 37.4477 22.1395C37.3473 22.2033 37.3855 22.4601 37.4477 22.3954C37.51 22.3316 37.5853 22.3954 37.5983 22.2033C37.6043 22.1071 37.5843 22.0799 37.5542 22.0829ZM27.1792 22.2143L27.5747 22.4176C27.6249 22.4853 27.8418 22.4682 27.8418 22.4682L27.9091 22.554C27.9091 22.554 28.0426 22.5369 28.126 22.639C28.2093 22.7411 28.643 22.6562 28.643 22.6562L28.7605 22.7583L28.9432 22.827L29.2524 22.8371L29.4452 23.0313C29.1429 23.1698 28.5316 23.1213 28.4924 23.0818C28.4422 23.0313 28.0928 22.8776 28.0928 22.8776C28.0928 22.8776 27.8257 22.6562 27.7755 22.7239C27.7253 22.7926 27.4915 22.639 27.4915 22.6906C27.4915 22.7411 27.2746 22.5713 27.2746 22.5713L26.9413 22.4509L27.1912 22.4003L27.1511 22.2336C27.1602 22.2275 27.1702 22.2215 27.1792 22.2143ZM9.05068 23.2184V23.3892H9.18414V23.6107H9.28454L9.26754 23.3559L9.13394 23.3042V23.2184H9.05068ZM33.4299 23.3042L33.4169 23.4579L33.5795 23.4691L33.5925 23.3296L33.4299 23.3042ZM33.2953 23.6653L33.2632 23.7623C33.2712 23.7653 33.2833 23.7714 33.2944 23.7785L33.3154 23.8675C33.3074 23.8785 33.2994 23.8897 33.2933 23.8967L33.3667 23.9666C33.4198 23.9059 33.4399 23.8482 33.4258 23.7916C33.4038 23.7046 33.3064 23.6693 33.2953 23.6653ZM30.3769 23.9686L31.1118 24.7096C31.0776 24.8341 30.9621 24.9069 30.8969 24.8563C30.8296 24.8047 30.9802 24.9412 31.0134 25.01C31.0475 25.0777 31.1469 25.0777 31.181 25.01C31.2031 24.9635 31.2031 24.8806 31.2111 24.8098L31.5504 25.1515C31.5063 25.2394 31.4621 25.3284 31.4812 25.385L31.6318 25.4528L31.6479 25.743C31.7603 25.8582 32.0123 25.8532 32.2141 25.8198L32.2824 25.8885C31.6641 26.4909 30.987 27.0288 30.2614 27.4941V27.3303C30.5625 27.1079 30.5786 26.7156 30.2955 26.6812C30.0797 26.656 30.179 26.4255 30.3789 26.3911L30.4953 26.3406V26.1869L30.8789 25.829V25.556L30.0456 24.8563C29.8749 24.7936 29.8638 24.5843 29.924 24.3791C30.079 24.2469 30.2301 24.11 30.3769 23.9686ZM9.88491 24.003L10.0024 24.3103L10.0696 24.464L10.2032 24.651L10.386 24.8219L10.4532 24.7026L10.3358 24.4468L10.2193 24.3609L10.135 24.1223L9.88491 24.003ZM6.62203 24.2526C7.63603 26.293 7.1983 28.9238 8.5135 30.8479C8.92418 31.4494 9.49939 32.0257 10.0305 32.5101L10.0054 32.5353C9.52455 32.3099 9.09084 31.9722 8.65311 31.6062C6.35203 29.6791 2.8913 29.4334 1.51386 26.293C1.88734 28.5982 3.70558 30.6406 5.66732 31.9348C7.53269 33.1653 9.92413 33.0287 11.9963 33.7173C10.0817 32.1612 9.79161 29.8257 8.93717 27.7792C8.40707 26.5073 7.54273 25.3628 6.62203 24.2526ZM40.1886 24.2526C39.2669 25.3628 38.4035 26.5073 37.8725 27.7792C37.0191 29.8257 36.7289 32.1612 34.8144 33.7173C36.8866 33.0287 39.277 33.1653 41.1434 31.9348C43.1051 30.6406 44.9223 28.5982 45.2967 26.293C43.9193 29.4334 40.4576 29.6791 38.1576 31.6062C37.7199 31.9722 37.2862 32.3099 36.8052 32.5353L36.7802 32.5101C37.3112 32.0257 37.8855 31.4494 38.2971 30.8479C39.6123 28.9238 39.1745 26.293 40.1886 24.2526ZM14.0083 24.9907C14.1558 24.9938 14.3525 25.1606 14.3746 25.2313C14.3878 25.2698 14.4339 25.3183 14.4871 25.3587L14.2401 25.6075C14.0856 25.446 13.9349 25.2808 13.7883 25.112H13.8577C13.8838 25.021 13.9409 24.9887 14.0083 24.9907ZM23.8913 25.9321C23.9946 25.9382 24.101 25.9654 24.1704 26.0159C24.354 26.1525 24.6041 26.0676 24.6041 26.0676L24.7888 26.293C24.4002 26.3496 24.0057 26.384 23.6041 26.3921V25.9887C23.6604 25.9462 23.7737 25.9249 23.8913 25.9321ZM32.5685 26.1768L34.6728 28.296C33.4992 29.4495 32.1488 30.4212 30.672 31.1744C28.48 32.294 26.0618 32.8914 23.6041 32.9206V29.9157C24.8049 29.8987 25.9976 29.716 27.1491 29.3727L27.4413 29.4617L27.5246 29.7347L27.6581 29.7175L27.7585 29.6326L28.1591 29.6154L28.3598 29.4273L28.5767 29.394L30.15 28.0462C31.0252 27.5194 31.8368 26.892 32.5685 26.1768ZM24.9865 26.6711L25.0217 26.75L25.3058 26.8349L25.5056 26.8865L25.5728 27.1757L25.7225 27.1928L25.7727 27.3809C25.9564 27.5174 25.7225 27.8076 25.7225 27.8076V28.1827L25.856 28.2504L25.839 28.3879L26.0568 28.6094L26.3068 28.6265L26.7214 29.0725C25.7046 29.3497 24.6574 29.4981 23.6041 29.5142V26.7935C24.0672 26.7845 24.529 26.7436 24.9865 26.6712V26.6711ZM20.9517 26.9492L20.8513 27.0342L20.802 27.0766L20.8542 27.115L20.9717 27.2L21.03 27.118L20.9647 27.0706L21.0159 27.0281L20.9517 26.9492ZM22.1413 28.1706L22.0962 28.2625L22.2006 28.3151L22.1665 28.3506L22.2377 28.4234L22.3211 28.3374L22.3702 28.2879L22.308 28.2555L22.1413 28.1706ZM13.6899 29.035L13.8245 29.2403L13.8405 29.394L14.0072 29.4446L14.0745 29.5466L14.191 29.4789L14.1076 29.2565L13.8907 29.0695L13.6899 29.035ZM9.93216 29.2262C11.184 30.9227 11.5405 33.3877 13.8285 34.2552C14.2331 34.4089 14.6979 34.4341 15.0484 34.6587C14.6076 34.7264 14.222 34.5889 13.8115 34.501C10.8638 33.869 7.26256 34.683 5.05384 32.1522C5.89221 33.8063 7.61796 35.1117 9.27651 35.6626C11.8457 36.5171 14.5243 35.5645 16.9388 34.961C17.2872 34.874 17.7098 34.9023 18.0321 34.783C16.6878 34.508 15.3917 34.0975 14.3505 33.139C12.8557 31.7619 11.5314 30.2959 9.93216 29.2262ZM36.8775 29.2262C35.2792 30.2959 33.955 31.7619 32.4591 33.139C31.419 34.0975 30.1228 34.508 28.7775 34.783C29.1008 34.9023 29.5235 34.874 29.8718 34.961C32.2864 35.5646 34.9639 36.5171 37.5341 35.6626C39.1926 35.1115 40.9185 33.8063 41.7567 32.1522C39.548 34.6828 35.9469 33.869 32.9982 34.5009C32.5885 34.5889 32.203 34.7264 31.7623 34.6586C32.1127 34.4341 32.5776 34.4089 32.9821 34.2552C35.2702 33.3877 35.6265 30.9227 36.8775 29.2262ZM20.9767 34.7183C18.7138 34.7183 16.6929 35.8194 14.707 36.6485C12.9109 37.3997 10.5285 37.2511 8.93717 36.1459C9.72427 37.1408 10.7784 37.7535 11.8658 38.1692C13.8867 38.981 16.246 38.3582 17.9659 37.2511C19.2048 36.4533 20.267 35.3229 21.7417 35.3229C22.0028 35.3229 22.2649 35.3532 22.5279 35.4088C22.8158 35.2922 23.1085 35.1883 23.4054 35.0974C22.6132 34.8567 21.7999 34.7183 20.9767 34.7183ZM23.4054 35.0974C23.7022 35.1883 23.9949 35.2922 24.2828 35.4088C24.5459 35.3531 24.8078 35.3228 25.0689 35.3228C26.5437 35.3228 27.6059 36.4532 28.8448 37.251C30.5646 38.358 32.9239 38.9808 34.9449 38.169C36.0321 37.7534 37.0854 37.1407 37.8725 36.1458C36.2822 37.251 33.8988 37.3995 32.1026 36.6484C30.1179 35.8193 28.0968 34.7182 25.8339 34.7182C25.0106 34.7182 24.1974 34.8567 23.4054 35.0974ZM24.2828 35.4088C23.9917 35.4704 23.6985 35.5634 23.4054 35.6847C25.2576 36.4471 27.116 38.2944 28.7545 40C29.0847 39.732 29.4352 39.4409 29.7052 39.1295C28.2364 37.7161 26.353 36.2449 24.2828 35.4088ZM23.4054 35.6847C23.1122 35.5634 22.819 35.4704 22.5279 35.4088C20.4566 36.2449 18.5743 37.7161 17.1054 39.1295C17.3756 39.4409 17.7259 39.7321 18.0552 40C19.6947 38.2944 21.553 36.4471 23.4054 35.6847Z" fill="#8F94A2"/>
<path d="M22.53 35.1895C22.5912 35.1199 23.2772 34.8669 23.4075 34.878C23.5587 34.8741 24.2849 35.1514 24.2849 35.1895C24.2709 35.2542 23.5016 35.4812 23.4075 35.4654C23.3573 35.4685 22.5347 35.2241 22.53 35.1895Z" fill="#8F94A2"/>
<path d="M59.5684 13.9759V9.375H58.0739V13.9759C58.0739 15.1289 57.572 15.7987 56.4811 15.7987C55.3793 15.7987 54.8666 15.1289 54.8666 13.9759V9.375H53.3721V13.9759C53.3721 16.0183 54.4957 17.2042 56.4811 17.2042C58.4557 17.2042 59.5684 16.0183 59.5684 13.9759Z" fill="#8F94A2"/>
<path d="M67.4382 17.0615V9.375H65.9436V14.5798L65.6273 14.0418L62.4964 9.375H61.0128V17.0615H62.5073V11.9006L62.8019 12.4057L65.9545 17.0615H67.4382Z" fill="#8F94A2"/>
<path d="M70.4546 17.0615V9.375H68.9601V17.0615H70.4546Z" fill="#8F94A2"/>
<path d="M77.7895 10.7805V9.375H71.3205V10.7805H73.8077V17.0615H75.3022V10.7805H77.7895Z" fill="#8F94A2"/>
<path d="M83.0615 10.7805V9.375H78.6652V17.0615H83.0615V15.6559H80.1598V13.8112H82.6688V12.4166H80.1598V10.7805H83.0615Z" fill="#8F94A2"/>
<path d="M87.1483 9.375H84.2902V17.0615H87.1483C89.5592 17.0615 91.0973 15.4912 91.0973 13.2182C91.0973 10.9452 89.5592 9.375 87.1483 9.375ZM85.7847 10.7805H87.1483C88.6756 10.7805 89.5483 11.67 89.5483 13.2182C89.5483 14.7665 88.6646 15.6559 87.1483 15.6559H85.7847V10.7805Z" fill="#8F94A2"/>
<path d="M59.8956 30.4823V22.7958H58.4011V28.0006L58.0848 27.4626L54.9539 22.7958H53.4703V30.4823H54.9648V25.3213L55.2593 25.8265L58.412 30.4823H59.8956Z" fill="#8F94A2"/>
<path d="M68.3666 30.4823L65.3994 22.7958H63.763L60.8067 30.4823H62.4212L63.054 28.7803H66.1085L66.7412 30.4823H68.3666ZM64.4394 25.0468L64.5812 24.6186L64.723 25.0468L65.6285 27.4626H63.5339L64.4394 25.0468Z" fill="#8F94A2"/>
<path d="M73.9223 24.2013V22.7958H67.4533V24.2013H69.9406V30.4823H71.4351V24.2013H73.9223Z" fill="#8F94A2"/>
<path d="M76.2926 30.4823V22.7958H74.7981V30.4823H76.2926Z" fill="#8F94A2"/>
<path d="M81.402 22.653C79.0784 22.653 77.4421 24.3331 77.4421 26.628C77.4421 28.934 79.0784 30.625 81.402 30.625C83.7147 30.625 85.3511 28.934 85.3511 26.628C85.3511 24.3331 83.7147 22.653 81.402 22.653ZM81.402 24.0586C82.8529 24.0586 83.802 25.1457 83.802 26.628C83.802 28.1214 82.8529 29.2195 81.402 29.2195C79.9402 29.2195 78.9911 28.1214 78.9911 26.628C78.9911 25.1457 79.9402 24.0586 81.402 24.0586Z" fill="#8F94A2"/>
<path d="M92.9314 30.4823V22.7958H91.4369V28.0006L91.1205 27.4626L87.9897 22.7958H86.506V30.4823H88.0006V25.3213L88.2951 25.8265L91.4478 30.4823H92.9314Z" fill="#8F94A2"/>
<path d="M96.6679 22.653C95.1625 22.653 94.257 23.6084 94.257 24.937C94.257 26.2218 95.0534 26.8367 96.4388 27.2979C97.3879 27.6163 97.7915 27.9128 97.7915 28.4289C97.7915 28.945 97.4315 29.3073 96.7879 29.3073C96.0243 29.3073 95.6206 28.8901 95.5879 28.1324H94.0825C94.1152 29.5928 95.0206 30.625 96.7661 30.625C98.206 30.625 99.2969 29.7795 99.2969 28.2971C99.2969 27.1441 98.7188 26.4743 97.1042 25.9143C96.177 25.5849 95.7624 25.3982 95.7624 24.8053C95.7624 24.2782 96.0897 23.9817 96.6243 23.9817C97.1588 23.9817 97.5406 24.3221 97.5624 24.948H99.0679C99.0133 23.4217 98.086 22.653 96.6679 22.653Z" fill="#8F94A2"/>
</svg>
